<svg width="180" height="184" viewBox="0 0 180 184" fill="none" xmlns="http://www.w3.org/2000/svg">
<path d="M96.0651 69.7461L56.4766 160.277C57.5363 160.732 58.596 161.188 59.7315 161.492C60.7912 161.872 61.9266 162.176 62.9863 162.403C64.0461 162.631 65.1058 162.783 66.0898 162.935C67.0739 163.011 68.0579 163.087 69.042 163.087L108.782 72.784C107.874 72.784 106.89 72.7081 105.83 72.5562C104.77 72.4043 103.786 72.2524 102.651 71.9486C101.591 71.7208 100.455 71.417 99.3957 71.0372C98.2603 70.5815 97.1248 70.2018 96.0651 69.7461Z" fill="#FFCA31" stroke="black" stroke-width="3" stroke-miterlimit="10" stroke-linecap="round" stroke-linejoin="round"/>
<path d="M115.368 72.0233C115.216 72.1752 114.989 72.3271 114.762 72.4031C114.535 72.5549 114.308 72.6309 114.081 72.7828C113.854 72.8587 113.627 73.0106 113.324 73.0866C111.81 73.6182 109.994 73.8461 107.95 73.7701C105.906 73.6942 103.635 73.3144 101.364 72.7068C99.0934 72.0993 96.6712 71.1879 94.4003 70.1246C92.1295 69.0613 89.9343 67.7702 87.8905 66.2512C86.4523 65.1879 85.3169 64.1247 84.2572 63.1373C83.2731 62.074 82.5162 61.0867 81.9106 60.0234C81.3808 59.0361 81.0023 58.0488 80.8509 57.1374C80.6995 56.226 80.8509 55.3906 81.1537 54.707L42.3978 144.554C42.095 145.314 41.9436 146.225 42.0193 147.136C42.095 148.048 42.4735 149.035 43.0033 150.098C43.5332 151.086 44.2901 152.149 45.2742 153.212C46.2582 154.276 47.3936 155.339 48.7562 156.402C50.7242 157.845 52.8437 159.136 55.1145 160.2C57.3854 161.263 59.6563 162.098 61.9271 162.706C64.198 163.314 66.3931 163.617 68.4369 163.617C70.4807 163.617 72.2973 163.389 73.8112 162.782C74.0383 162.706 74.3411 162.554 74.5682 162.478C74.7953 162.402 75.0224 162.25 75.2494 162.098C75.4765 161.946 75.6279 161.795 75.855 161.643C76.0064 161.491 76.2335 161.339 76.3849 161.187L115.898 71.6436C115.746 71.7955 115.595 71.9474 115.368 72.0233Z" fill="#FFCA31" stroke="black" stroke-width="3" stroke-miterlimit="10" stroke-linecap="round" stroke-linejoin="round"/>
<path d="M88.1204 68.8438L50.9668 153.683" stroke="black" stroke-width="3"/>
<path d="M102.214 74.6289L65.7012 158.826" stroke="black" stroke-width="3"/>
<path d="M121.575 62.155C121.197 60.712 120.364 59.1171 119.077 57.5222C117.79 55.9272 115.974 54.2564 113.779 52.5855C111.583 50.9906 109.086 49.5476 106.588 48.3324C104.09 47.1172 101.44 46.2058 98.8667 45.5223C96.293 44.8387 93.7951 44.3831 91.5242 44.3071C89.2534 44.2312 87.1339 44.3831 85.4686 44.9906C83.7277 45.5223 82.5922 46.4337 81.911 47.4969C81.7596 47.7248 81.6839 47.9526 81.6082 48.1805V48.1045L79.1103 53.8766C78.7318 54.7121 78.6561 55.6234 78.8075 56.6108C78.9589 57.5981 79.3373 58.6614 79.9429 59.8006C80.5485 60.9398 81.4568 62.0791 82.5922 63.2183C83.7277 64.3575 85.0145 65.5727 86.6041 66.7119C88.7992 68.3828 91.2972 69.8258 93.8708 71.041C96.4444 72.2562 99.0938 73.2435 101.667 73.9271C104.241 74.6106 106.739 74.9903 109.086 75.1422C111.356 75.2182 113.476 74.9903 115.141 74.3828C115.444 74.3068 115.747 74.1549 115.974 74.079C116.201 73.9271 116.504 73.8511 116.731 73.6992C116.958 73.5473 117.185 73.3954 117.412 73.2435C117.639 73.0916 117.79 72.9397 117.942 72.7878C117.942 72.7878 120.97 66.4841 121.197 66.1044C121.802 64.9651 121.954 63.598 121.575 62.155Z" fill="#B8BDBF" stroke="black" stroke-width="3" stroke-miterlimit="10" stroke-linecap="round" stroke-linejoin="round"/>
<path d="M124.375 46.4296L115.064 67.5433C115.292 67.4673 115.594 67.3914 115.746 67.2395C115.973 67.1635 116.2 67.0116 116.351 66.9357C116.578 66.7838 116.73 66.7078 116.881 66.556C117.033 66.4041 117.184 66.2522 117.335 66.1762L126.646 45.0625C126.494 45.2144 126.343 45.3663 126.192 45.4422C126.04 45.5941 125.813 45.6701 125.662 45.822C125.435 45.9739 125.283 46.0498 125.056 46.1258C124.905 46.2777 124.678 46.3536 124.375 46.4296Z" fill="#B8BDBF" stroke="black" stroke-width="3" stroke-miterlimit="10" stroke-linecap="round" stroke-linejoin="round"/>
<path d="M118.395 65.8737L116.306 66.9158L110.645 53.4758L127.175 46.0511C127.251 45.9752 127.327 45.8992 127.402 45.7473C127.478 45.6714 127.554 45.5195 127.629 45.4435C127.705 45.3676 127.781 45.2157 127.857 45.1397C127.932 45.0638 127.932 44.9119 128.008 44.8359L119.227 64.6585C119.152 64.7345 119.152 64.8864 119.076 64.9623C119 65.0383 118.925 65.1902 118.849 65.2661C118.773 65.3421 118.697 65.494 118.622 65.5699C118.622 65.7218 118.47 65.7977 118.395 65.8737Z" fill="#B8BDBF" stroke="black" stroke-width="3" stroke-miterlimit="10" stroke-linecap="round" stroke-linejoin="round"/>
<path d="M86.8309 57.4421C85.8469 56.3788 85.0899 55.3915 84.4844 54.3282C83.9545 53.3409 83.576 52.3535 83.4246 51.4422C83.2732 50.5308 83.4246 49.6953 83.7274 49.0118L92.3567 29.1133C92.0539 29.8728 91.9782 30.6323 92.0539 31.5436C92.2053 32.455 94.3742 32.0719 94.9798 33.0593C95.5854 34.0466 96.5593 34.6601 97.5433 35.6474C98.5274 36.7107 100.093 35.5228 101.531 36.5101C103.499 37.9532 103.945 40.7093 106.216 41.8485C108.487 42.9118 110.296 46.3536 112.567 46.9612C114.914 47.5688 117.109 47.9485 119.153 48.0245C121.196 48.1004 125.937 47.4928 127.451 46.9612L119.153 65.555L115.822 67.2395C114.308 67.7711 112.492 67.999 110.448 67.923C108.404 67.8471 106.133 67.4673 103.862 66.8597C101.591 66.2521 99.1692 65.3407 96.8984 64.2775" fill="#B8BDBF"/>
<path d="M86.8309 57.4421C85.8469 56.3788 85.0899 55.3915 84.4844 54.3282C83.9545 53.3409 83.576 52.3535 83.4246 51.4422C83.2732 50.5308 83.4246 49.6953 83.7274 49.0118L92.3567 29.1133C92.0539 29.8728 91.9782 30.6323 92.0539 31.5436C92.2053 32.455 94.3742 32.0719 94.9798 33.0593C95.5854 34.0466 96.5593 34.6601 97.5433 35.6474C98.5274 36.7107 100.093 35.5228 101.531 36.5101C103.499 37.9532 103.945 40.7093 106.216 41.8485C108.487 42.9118 110.296 46.3536 112.567 46.9612C114.914 47.5688 117.109 47.9485 119.153 48.0245C121.196 48.1004 125.937 47.4928 127.451 46.9612L119.153 65.555L115.822 67.2395C114.308 67.7711 112.492 67.999 110.448 67.923C108.404 67.8471 106.133 67.4673 103.862 66.8597C101.591 66.2521 99.1692 65.3407 96.8984 64.2775" stroke="black" stroke-width="3" stroke-miterlimit="10" stroke-linecap="round" stroke-linejoin="round"/>
<path d="M105.15 45.3665C107.723 46.5817 110.373 47.569 113.022 48.2525C115.596 48.9361 118.169 49.3918 120.44 49.4677C122.711 49.5437 124.831 49.3158 126.496 48.7842C128.161 48.1766 129.372 47.3411 129.978 46.2019C130.053 46.05 130.129 45.8981 130.205 45.7462C130.962 43.9994 132.022 41.7209 132.778 39.9741C133.157 39.1387 133.233 38.2273 133.081 37.24C132.93 36.2527 132.551 35.1894 131.87 34.0501C131.189 32.9109 130.281 31.7717 129.145 30.6325C128.01 29.4932 126.647 28.278 125.058 27.1388C122.862 25.5439 120.364 24.1009 117.791 22.8857C115.217 21.6705 112.644 20.6832 110.07 19.9997C107.496 19.3161 104.998 18.8604 102.728 18.7845C100.457 18.6326 98.3372 18.8604 96.6719 19.3921C96.142 19.544 95.6879 19.7718 95.3094 19.9237C94.9309 20.1516 94.5525 20.3794 94.2497 20.6072C93.9469 20.8351 93.6441 21.1389 93.417 21.4427C93.1899 21.7465 92.9629 22.0503 92.8872 22.43L90.3892 28.2021V28.1262C89.935 29.1135 89.8594 30.2527 90.1621 31.4679C90.4649 32.9109 91.2976 34.5058 92.6601 36.1008C93.9469 37.6957 95.7636 39.4425 97.9587 41.0374" fill="#B8BDBF"/>
<path d="M105.15 45.3665C107.723 46.5817 110.373 47.569 113.022 48.2525C115.596 48.9361 118.169 49.3918 120.44 49.4677C122.711 49.5437 124.831 49.3158 126.496 48.7842C128.161 48.1766 129.372 47.3411 129.978 46.2019C130.053 46.05 130.129 45.8981 130.205 45.7462C130.962 43.9994 132.022 41.7209 132.778 39.9741C133.157 39.1387 133.233 38.2273 133.081 37.24C132.93 36.2527 132.551 35.1894 131.87 34.0501C131.189 32.9109 130.281 31.7717 129.145 30.6325C128.01 29.4932 126.647 28.278 125.058 27.1388C122.862 25.5439 120.364 24.1009 117.791 22.8857C115.217 21.6705 112.644 20.6832 110.07 19.9997C107.496 19.3161 104.998 18.8604 102.728 18.7845C100.457 18.6326 98.3372 18.8604 96.6719 19.3921C96.142 19.544 95.6879 19.7718 95.3094 19.9237C94.9309 20.1516 94.5525 20.3794 94.2497 20.6072C93.9469 20.8351 93.6441 21.1389 93.417 21.4427C93.1899 21.7465 92.9629 22.0503 92.8872 22.43L90.3892 28.2021V28.1262C89.935 29.1135 89.8594 30.2527 90.1621 31.4679C90.4649 32.9109 91.2976 34.5058 92.6601 36.1008C93.9469 37.6957 95.7636 39.4425 97.9587 41.0374" stroke="black" stroke-width="3" stroke-miterlimit="10" stroke-linecap="round" stroke-linejoin="round"/>
<path d="M137.773 18.0252L137.546 17.2657C137.243 16.2783 137.167 16.2024 136.94 15.5948L136.562 14.8353C136.334 14.4556 136.032 13.9239 135.805 13.5442L135.199 12.7847C134.972 12.4809 134.593 12.0252 134.366 11.7214L133.609 10.9619C133.307 10.7341 132.928 10.3543 132.701 10.0506L131.793 9.29107C131.414 8.98727 130.809 8.53158 130.43 8.22778L129.446 7.54425C129.143 7.3164 128.689 7.08856 128.386 6.86071L127.327 6.25312C127.024 6.10122 126.57 5.87338 126.267 5.64553L125.132 5.11389C124.829 4.962 124.375 4.73415 123.996 4.58225L122.861 4.12656C122.558 3.97466 122.104 3.82277 121.725 3.67087L120.59 3.29113C120.211 3.21518 119.757 3.06328 119.454 2.98733L118.319 2.75949C117.941 2.68354 117.486 2.60759 117.184 2.53164L116.048 2.30379C115.67 2.22785 115.216 2.1519 114.837 2.1519L113.777 2.07595C113.399 2.07595 112.945 2.07595 112.566 2H111.506C111.128 2 110.598 2.07595 110.144 2.1519L109.236 2.30379C108.781 2.37974 108.176 2.53164 107.722 2.68354L106.889 2.98733L106.132 3.29113L105.451 3.67087C105.148 3.82277 104.77 4.05061 104.543 4.27846L103.937 4.73415C103.71 4.962 103.407 5.18984 103.256 5.41769C103.256 5.41769 101.515 7.92399 101.439 8.15184C101.515 7.99994 101.515 7.92399 101.59 7.77209C101.59 7.77209 101.439 7.99994 101.439 8.15184L94.8536 23.3416C94.5508 24.101 94.4751 24.8605 94.6265 25.7719C94.7779 26.6833 95.1563 27.5947 95.6862 28.582C96.2918 29.5693 97.0487 30.6326 98.0328 31.62C99.0168 32.6832 100.228 33.7465 101.666 34.7338C103.71 36.1769 105.905 37.468 108.176 38.6072C110.447 39.6705 112.869 40.5819 115.14 41.1895C117.486 41.7971 119.682 42.1768 121.801 42.2528C123.845 42.3287 125.737 42.1768 127.251 41.6452C128.916 40.43 130.279 38.7591 131.187 36.8604C132.928 33.2149 135.88 26.9111 137.243 23.7972L137.546 23.1137C137.773 22.3542 137.924 21.8226 138 20.7593V19.9998C138 19.2403 138 19.0125 137.773 18.0252Z" fill="#FFB9CE" stroke="black" stroke-width="3" stroke-miterlimit="10" stroke-linecap="round" stroke-linejoin="round"/>
<path d="M46.4084 181.467C44.9702 170.075 42.0938 147.366 42.0938 147.366C42.0938 147.366 44.3646 144.404 44.9702 145.164C45.5 145.923 46.7112 154.209 47.5438 154.969C48.3008 155.728 50.2688 151.771 51.2529 152.531C53.2209 153.974 52.9182 159.214 55.1133 160.277C57.3842 161.341 62.6828 156.784 64.9537 157.315C67.2245 157.923 66.0322 164.075 67.6218 162.86C78.2948 154.657 73.8857 162.86 73.8857 162.86L47.5438 181.999C47.4681 181.999 47.3924 181.999 47.3167 181.999C47.241 181.999 47.1653 181.999 47.0896 181.999C47.0139 181.999 46.9382 181.923 46.8625 181.923C46.7868 181.923 46.7112 181.847 46.6355 181.771L46.5598 181.695L46.4841 181.619C46.4841 181.619 46.4841 181.543 46.4084 181.543V181.467Z" fill="#E3DBD5" stroke="black" stroke-width="3" stroke-miterlimit="10" stroke-linecap="round" stroke-linejoin="round"/>
<path d="M44.9727 167.719C48.4549 171.668 53.5268 173.719 58.7501 173.339L59.5828 173.263L47.0923 181.998L44.9727 167.719Z" fill="black"/>
<path d="M122.408 21.3672C122.408 21.3672 127.329 23.7217 131.038 22.3546Z" fill="#FFB9CE"/>
<path d="M122.408 21.3672C122.408 21.3672 127.329 23.7217 131.038 22.3546" stroke="black" stroke-width="3" stroke-miterlimit="10" stroke-linecap="round" stroke-linejoin="round"/>
</svg>
