<svg width="181" height="180" viewBox="0 0 181 180" fill="none" xmlns="http://www.w3.org/2000/svg">
<path d="M54.6226 26.005C54.6914 26.0021 54.7603 26.0007 54.8291 26C54.898 26 54.9675 26.0014 55.0371 26.0043C55.1067 26.0071 55.1762 26.0121 55.2458 26.0178C55.3154 26.0242 55.3857 26.0313 55.456 26.0405L171.543 40.9071C172.418 41.0174 173.227 41.3055 173.937 41.7316C174.648 42.1584 175.261 42.724 175.748 43.3884C176.236 44.0536 176.597 44.8183 176.802 45.6421C177.008 46.4666 177.057 47.3494 176.923 48.2522L163.279 138.739C163.16 139.542 162.902 140.28 162.534 140.934C162.167 141.588 161.689 142.157 161.131 142.622C160.574 143.086 159.936 143.446 159.247 143.682C158.558 143.917 157.818 144.028 157.055 143.994C156.976 143.991 156.897 143.986 156.817 143.979C156.738 143.973 156.659 143.964 156.578 143.955C156.499 143.945 156.419 143.934 156.338 143.921C156.258 143.908 156.178 143.893 156.098 143.877L42.4515 120.721C41.7333 120.572 41.0716 120.268 40.4904 119.844C39.9092 119.421 39.4085 118.879 39.0114 118.255C38.6142 117.631 38.3207 116.926 38.1548 116.175C37.9888 115.425 37.9497 114.63 38.0613 113.825L49.3411 31.3055C49.444 30.565 49.6635 29.8707 49.9744 29.2439C50.2861 28.6172 50.6897 28.058 51.1608 27.5885C51.6325 27.1183 52.1731 26.737 52.758 26.466C53.3435 26.1942 53.9733 26.0334 54.6226 26.005Z" fill="#FFCA31" stroke="black" stroke-width="3" stroke-miterlimit="10" stroke-linejoin="round"/>
<path d="M42.9745 121.659C42.2321 121.521 41.52 121.237 40.8676 120.843C40.216 120.449 39.6234 119.945 39.1201 119.363C38.6168 118.782 38.2014 118.124 37.9047 117.424C37.6073 116.722 37.4287 115.978 37.397 115.226L33.7042 22.6255C33.6747 21.8559 33.7765 21.1356 33.9883 20.4843C34.2001 19.833 34.5219 19.2516 34.9315 18.7628C35.3418 18.2732 35.8414 17.8756 36.4081 17.5926C36.9756 17.3088 37.6103 17.1398 38.2899 17.1074C38.3622 17.1038 38.4353 17.1023 38.5084 17.1016C38.5814 17.1016 38.6552 17.1023 38.7297 17.1052C38.8043 17.1082 38.8788 17.1126 38.9541 17.1185C39.0294 17.1243 39.1046 17.1324 39.1806 17.1413L65.9871 20.3402C66.3797 20.388 66.7701 20.4769 67.1531 20.6041C67.5361 20.7313 67.9102 20.8974 68.2711 21.0988C68.632 21.3002 68.9795 21.5369 69.3072 21.8052C69.6349 22.0742 69.9426 22.3749 70.2252 22.7049L78.8262 32.6576C79.1088 32.9869 79.4165 33.2875 79.7449 33.5558C80.0733 33.8241 80.4216 34.0601 80.7847 34.2615C81.1478 34.4629 81.5264 34.629 81.9138 34.7584C82.302 34.887 82.699 34.9789 83.1004 35.0296L162.862 45.2315C163.78 45.3476 164.647 45.6423 165.431 46.0753C166.215 46.509 166.914 47.0809 167.492 47.752C168.069 48.4231 168.527 49.1919 168.829 50.0196C169.13 50.8465 169.276 51.7316 169.231 52.6335L165.146 138.805C165.109 139.53 164.93 140.196 164.634 140.785C164.339 141.374 163.929 141.886 163.428 142.302C162.929 142.719 162.341 143.04 161.689 143.25C161.038 143.459 160.324 143.555 159.574 143.521C159.496 143.517 159.418 143.512 159.339 143.506L42.9745 121.659Z" fill="#FFE496" stroke="black" stroke-width="3" stroke-miterlimit="10" stroke-linejoin="round"/>
<path d="M137.035 56.1099C137.938 56.0761 138.806 56.2349 139.605 56.5517C140.404 56.8685 141.133 57.3441 141.753 57.9417C142.375 58.54 142.887 59.2611 143.255 60.0697C143.623 60.8783 143.846 61.7736 143.887 62.7203L147.936 156.566C147.975 157.475 147.832 158.334 147.539 159.109C147.247 159.884 146.805 160.574 146.247 161.147C145.691 161.718 145.019 162.172 144.264 162.475C143.51 162.777 142.674 162.928 141.789 162.895L24.4829 158.505C23.7383 158.477 23.0188 158.283 22.3546 157.956C21.6905 157.63 21.0824 157.171 20.5592 156.611C20.0367 156.053 19.5991 155.394 19.2781 154.669C18.957 153.943 18.7511 153.15 18.6929 152.322L12.6489 67.0417C12.5884 66.1832 12.6814 65.3599 12.9035 64.6065C13.1257 63.8523 13.4755 63.168 13.9278 62.5865C14.3802 62.0051 14.9351 61.5266 15.5654 61.187C16.1963 60.8467 16.9033 60.6452 17.659 60.6166L137.035 56.1099Z" fill="#FFCA31" stroke="black" stroke-width="3" stroke-miterlimit="10" stroke-linejoin="round"/>
<path d="M32.5394 52.6685C32.9224 52.6531 33.3084 52.678 33.6914 52.7427C34.0751 52.8074 34.4566 52.9111 34.83 53.0522C35.2042 53.1933 35.5702 53.3727 35.9237 53.588C36.2772 53.8034 36.6181 54.0548 36.9414 54.3407L46.6087 62.9093C46.9326 63.196 47.275 63.4496 47.6307 63.6679C47.9864 63.8862 48.3562 64.0692 48.734 64.2148C49.1118 64.3603 49.4978 64.4684 49.8874 64.5374C50.2771 64.6065 50.6689 64.6359 51.0593 64.6235L129.407 62.1742C130.32 62.1456 131.212 62.3051 132.042 62.6167C132.873 62.9291 133.642 63.3944 134.31 63.9788C134.979 64.5624 135.545 65.2644 135.97 66.0495C136.395 66.8338 136.678 67.7011 136.78 68.6155L146.662 157.021C146.755 157.853 146.665 158.637 146.424 159.344C146.183 160.05 145.791 160.678 145.279 161.198C144.766 161.717 144.135 162.128 143.413 162.4C142.692 162.672 141.882 162.806 141.011 162.771L25.486 158.21C24.7546 158.181 24.0307 158.001 23.3481 157.699C22.6655 157.396 22.0235 156.974 21.4552 156.459C20.887 155.945 20.3926 155.34 20.0051 154.674C19.6177 154.007 19.3373 153.279 19.1978 152.519L2.22098 60.0463C2.06675 59.2076 2.07339 58.4019 2.21803 57.6632C2.36193 56.923 2.64457 56.2504 3.04086 55.6778C3.43788 55.1045 3.94929 54.6326 4.55294 54.2959C5.15659 53.9585 5.85249 53.7571 6.61554 53.7262L32.5394 52.6685Z" fill="#FFE496" stroke="black" stroke-width="3" stroke-miterlimit="10" stroke-linejoin="round"/>
<path d="M139 84.499L144.604 79.3086L147.54 159.106L139 84.499Z" fill="black"/>
<path d="M165.5 140.5L175 63L168.674 64.3984L165.5 140.5Z" fill="black"/>
</svg>
