<svg width="180" height="180" viewBox="0 0 180 180" fill="none" xmlns="http://www.w3.org/2000/svg">
<path d="M173.516 132.892L172.986 124.533L169.096 105.645L169.584 113.946L173.516 132.892Z" fill="#F4B808" stroke="black" stroke-width="3" stroke-miterlimit="10" stroke-linejoin="round"/>
<path d="M169.584 113.947L169.096 105.645L99.368 67.1526L99.6567 75.423L169.584 113.947Z" fill="#F4B808" stroke="black" stroke-width="3" stroke-miterlimit="10" stroke-linejoin="round"/>
<path d="M49.1646 58.3798L49.1176 50.1975C49.0972 50.6542 49.0768 51.1109 48.9986 51.6098C48.9204 52.1088 48.8001 52.5502 48.6377 52.934C48.4597 53.4177 48.2973 53.8015 48.0194 54.2698C47.7993 54.6959 47.4793 55.1067 47.1594 55.5174C46.2728 56.6077 45.1602 57.51 43.9368 58.1398C42.6558 58.8118 41.3061 59.269 39.8879 59.5113C38.4697 59.7536 36.983 59.7809 35.4854 59.5512C33.9878 59.3214 32.5792 58.8498 31.2597 58.1365L31.2488 66.361C32.5684 67.0744 33.977 67.5459 35.4746 67.7757C36.9722 68.0055 38.4589 67.9781 39.8771 67.7358C41.2953 67.4936 42.7448 67.0517 43.926 66.3643C45.2071 65.6923 46.3198 64.79 47.2063 63.6997C47.5263 63.289 47.8462 62.8782 48.0664 62.4521C48.2865 62.026 48.5066 61.6 48.6846 61.1163C48.8627 60.6327 48.9829 60.1913 49.0455 59.7922C49.1237 59.2932 49.1441 58.8365 49.1646 58.3798Z" fill="#F4B808"/>
<path d="M49.1661 58.3776L49.1191 50.1953C49.1191 50.1953 49.1612 50.2529 49.1035 50.2951C49.0458 50.3373 49.1456 50.3527 49.0879 50.3949C49.0879 50.3949 49.13 50.4524 49.0722 50.4947C49.0722 50.4947 49.1143 50.5522 49.0566 50.5945L49.1035 58.7768C49.1035 58.7768 49.0614 58.7192 49.1192 58.677C49.1769 58.6347 49.0771 58.6194 49.1348 58.5772C49.1504 58.4774 49.1504 58.4774 49.1661 58.3776Z" fill="#F4B808" stroke="black" stroke-width="3" stroke-miterlimit="10" stroke-linejoin="round"/>
<path d="M49.1602 58.737L49.1133 50.5547C49.0976 50.6545 49.1397 50.712 49.082 50.7543C49.0664 50.8541 49.1085 50.9116 49.0507 50.9539C49.0351 51.0536 49.0772 51.1112 49.0195 51.1534C49.0038 51.2532 49.0038 51.2532 48.9882 51.353L49.0351 59.5353C49.0508 59.4355 49.0508 59.4355 49.0664 59.3357C49.082 59.2359 49.082 59.2359 49.0977 59.1362C49.1133 59.0364 49.0712 58.9788 49.1289 58.9366C49.1867 58.8943 49.1602 58.737 49.1602 58.737Z" fill="#F4B808" stroke="black" stroke-width="3" stroke-miterlimit="10" stroke-linejoin="round"/>
<path d="M49.0762 59.5925L49.0293 51.4102C49.0137 51.5099 48.9559 51.5522 48.998 51.6097C48.9824 51.7095 48.9246 51.7518 48.9667 51.8093C49.0088 51.8669 48.8934 51.9513 48.9355 52.0089C48.9776 52.0665 48.8621 52.1509 48.9042 52.2085L48.9511 60.3908C48.9668 60.291 49.0245 60.2488 48.9824 60.1912C48.998 60.0914 49.0558 60.0492 49.0137 59.9916C49.0293 59.8918 49.087 59.8496 49.0449 59.7921C49.0028 59.7345 49.0185 59.6347 49.0762 59.5925Z" fill="#F4B808" stroke="black" stroke-width="3" stroke-miterlimit="10" stroke-linejoin="round"/>
<path d="M48.8946 60.4323L48.8477 52.25C48.832 52.3498 48.7743 52.392 48.7587 52.4918C48.743 52.5916 48.6853 52.6338 48.6696 52.7336C48.654 52.8334 48.5963 52.8757 48.5806 52.9754C48.565 53.0752 48.5072 53.1175 48.4916 53.2173L48.5385 61.3996C48.5542 61.2998 48.6119 61.2575 48.6276 61.1577C48.6432 61.058 48.7009 61.0157 48.7166 60.9159C48.7322 60.8161 48.7899 60.7739 48.8056 60.6741C48.8633 60.6319 48.879 60.5321 48.8946 60.4323Z" fill="#F4B808" stroke="black" stroke-width="3" stroke-miterlimit="10" stroke-linejoin="round"/>
<path d="M48.5391 61.4011L48.4922 53.2188C48.4766 53.3185 48.4188 53.3608 48.3454 53.5028C48.2721 53.6448 48.2143 53.6871 48.1987 53.7869C48.183 53.8866 48.0676 53.9711 48.0519 54.0709C48.0363 54.1707 47.9208 54.2552 47.9052 54.355L47.9521 62.5373C47.9678 62.4375 48.0832 62.353 48.0989 62.2532C48.1145 62.1534 48.23 62.0689 48.2456 61.9692C48.2613 61.8694 48.3767 61.7849 48.3924 61.6851C48.408 61.5853 48.5235 61.5008 48.5391 61.4011Z" fill="#F4B808" stroke="black" stroke-width="3" stroke-miterlimit="10" stroke-linejoin="round"/>
<path d="M47.9942 62.5925L47.9473 54.4102C47.9316 54.5099 47.8161 54.5944 47.8005 54.6942C47.7849 54.794 47.6694 54.8785 47.6538 54.9783C47.6381 55.0781 47.5226 55.1625 47.4072 55.247C47.2917 55.3315 47.2761 55.4313 47.1606 55.5157C47.1028 55.558 47.0872 55.6578 47.0295 55.7C46.9717 55.7422 46.914 55.7845 46.8983 55.8843C46.8406 55.9265 46.7829 55.9687 46.7672 56.0685C46.7095 56.1108 46.6518 56.153 46.6361 56.2528L46.6831 64.4351C46.7408 64.3929 46.7985 64.3506 46.8142 64.2508C46.8298 64.151 46.9296 64.1664 46.9453 64.0666C46.9609 63.9668 47.0608 63.9821 47.0764 63.8823C47.1341 63.8401 47.1919 63.7978 47.2075 63.698C47.323 63.6136 47.3386 63.5138 47.4541 63.4293C47.5696 63.3448 47.5852 63.245 47.7007 63.1606C47.7741 63.0185 47.8318 62.9763 47.8474 62.8765C47.8631 62.7767 47.9365 62.6347 47.9942 62.5925Z" fill="#F4B808" stroke="black" stroke-width="3" stroke-miterlimit="10" stroke-linejoin="round"/>
<path d="M46.5411 64.362L46.4941 56.1797C46.3787 56.2642 46.3053 56.4062 46.1321 56.5329C46.0166 56.6174 45.9011 56.7018 45.77 56.8861C45.6545 56.9706 45.4813 57.0973 45.3658 57.1818C45.2504 57.2662 45.0771 57.3929 44.9617 57.4774L44.9508 65.702C45.0663 65.6175 45.2395 65.4908 45.355 65.4063C45.4705 65.3218 45.6437 65.1951 45.7592 65.1106C45.8747 65.0262 46.0479 64.8995 46.1213 64.7574C46.3522 64.5885 46.4677 64.504 46.5411 64.362Z" fill="black" stroke="black" stroke-width="3" stroke-miterlimit="10" stroke-linejoin="round"/>
<path d="M45.0658 65.6188L45.0766 57.3943C44.9034 57.521 44.7302 57.6477 44.557 57.7744C44.3838 57.9011 44.1684 57.9703 43.9952 58.097C43.822 58.2237 43.6067 58.2928 43.4335 58.4195C43.2182 58.4887 43.0449 58.6154 42.8296 58.6846L42.8188 66.9091C43.0341 66.84 43.2073 66.7133 43.4227 66.6441C43.638 66.5749 43.8112 66.4482 43.9844 66.3215C44.1576 66.1948 44.3729 66.1257 44.5462 65.9989C44.7194 65.8722 44.8926 65.7455 45.0658 65.6188Z" fill="black" stroke="black" stroke-width="3" stroke-miterlimit="10" stroke-linejoin="round"/>
<path d="M42.9352 66.8238L42.946 58.5992C42.8305 58.6837 42.7306 58.6684 42.6152 58.7529C42.4997 58.8373 42.3999 58.822 42.2844 58.9065C42.1689 58.991 42.0691 58.9756 41.9115 59.0026C41.7539 59.0295 41.6962 59.0717 41.5386 59.0986L41.5278 67.3232C41.6854 67.2963 41.7431 67.254 41.9007 67.2271C42.0582 67.2002 42.116 67.1579 42.2736 67.131C42.4311 67.1041 42.4889 67.0619 42.6044 66.9774C42.7198 66.8929 42.7776 66.8507 42.9352 66.8238Z" fill="#F4B808" stroke="black" stroke-width="3" stroke-miterlimit="10" stroke-linejoin="round"/>
<path d="M41.528 67.3227L41.5389 59.0982C41.4811 59.1404 41.3235 59.1673 41.2658 59.2096C41.166 59.1943 41.0505 59.2787 40.9506 59.2634C40.8508 59.2481 40.7353 59.3326 40.6355 59.3173C40.5356 59.3019 40.4202 59.3864 40.3203 59.3711L40.3095 67.5956C40.4094 67.6109 40.5248 67.5265 40.6247 67.5418C40.7245 67.5571 40.84 67.4726 40.9398 67.488C41.0397 67.5033 41.1552 67.4188 41.255 67.4341C41.3705 67.3496 41.4282 67.3074 41.528 67.3227Z" fill="#F4B808" stroke="black" stroke-width="3" stroke-miterlimit="10" stroke-linejoin="round"/>
<path d="M40.367 67.5561L40.3778 59.3315C40.278 59.3162 40.2202 59.3584 40.1204 59.3431C40.0206 59.3278 39.9628 59.37 39.863 59.3547C39.7631 59.3394 39.7054 59.3816 39.6056 59.3663C39.5057 59.351 39.448 59.3932 39.3482 59.3779L39.3374 67.6025C39.4372 67.6178 39.4949 67.5755 39.5948 67.5909C39.6946 67.6062 39.7524 67.5639 39.8522 67.5793C39.952 67.5946 40.0098 67.5524 40.1096 67.5677C40.1517 67.6252 40.2515 67.6405 40.367 67.5561Z" fill="#F4B808" stroke="black" stroke-width="3" stroke-miterlimit="10" stroke-linejoin="round"/>
<path d="M39.2616 67.7436L39.2724 59.519C39.1725 59.5037 39.1148 59.5459 39.0149 59.5306C38.9151 59.5153 38.8574 59.5575 38.7575 59.5422C38.6577 59.5269 38.5999 59.5692 38.5001 59.5538C38.4003 59.5385 38.3425 59.5808 38.2427 59.5654L38.2319 67.79C38.3317 67.8053 38.3895 67.763 38.4893 67.7784C38.5891 67.7937 38.6469 67.7514 38.7467 67.7668C38.8466 67.7821 38.9043 67.7398 39.0041 67.7552C39.104 67.7705 39.2038 67.7858 39.2616 67.7436Z" fill="#F4B808" stroke="black" stroke-width="3" stroke-miterlimit="10" stroke-linejoin="round"/>
<path d="M38.2186 67.8881L38.2294 59.6636C38.1295 59.6482 38.0718 59.6905 37.972 59.6752C37.8721 59.6598 37.8144 59.7021 37.7145 59.6868C37.6147 59.6714 37.557 59.7137 37.4571 59.6984C37.3573 59.683 37.2996 59.7253 37.1997 59.71L37.1889 67.9345C37.2888 67.9498 37.3465 67.9076 37.4463 67.9229C37.5462 67.9382 37.6039 67.896 37.7037 67.9113C37.8036 67.9266 37.8613 67.8844 37.9612 67.8997C38.061 67.915 38.1187 67.8728 38.2186 67.8881Z" fill="#F4B808" stroke="black" stroke-width="3" stroke-miterlimit="10" stroke-linejoin="round"/>
<path d="M37.1463 67.8764L37.1571 59.6518C37.0573 59.6365 36.9574 59.6212 36.8997 59.6634C36.7999 59.6481 36.7 59.6328 36.6423 59.675C36.5424 59.6597 36.4426 59.6444 36.3849 59.6866C36.285 59.6713 36.1852 59.656 36.1274 59.6982L36.1166 67.9228C36.2165 67.9381 36.3163 67.9534 36.374 67.9112C36.4318 67.869 36.5737 67.9418 36.6315 67.8996C36.6892 67.8574 36.8311 67.9302 36.8889 67.888C36.9466 67.8458 37.0465 67.8611 37.1463 67.8764Z" fill="#F4B808" stroke="black" stroke-width="3" stroke-miterlimit="10" stroke-linejoin="round"/>
<path d="M36.091 67.7678L36.1439 59.6008C36.044 59.5855 35.9442 59.5702 35.8444 59.5548C35.7445 59.5395 35.6447 59.5242 35.5448 59.5089C35.445 59.4936 35.3452 59.4783 35.2453 59.4629C35.1455 59.4476 35.0457 59.4323 34.9458 59.417L34.935 67.6415C35.0348 67.6569 35.1347 67.6722 35.2345 67.6875C35.3344 67.7028 35.4342 67.7181 35.534 67.7334C35.6339 67.7487 35.7337 67.7641 35.8335 67.7794C35.9334 67.7947 36.0332 67.81 36.091 67.7678Z" fill="#F4B808" stroke="black" stroke-width="3" stroke-miterlimit="10" stroke-linejoin="round"/>
<path d="M35.0335 67.6574L35.0443 59.4328C34.9444 59.4175 34.8446 59.4022 34.7448 59.3869C34.6449 59.3716 34.5451 59.3562 34.4452 59.3409C34.3454 59.3256 34.2456 59.3103 34.1457 59.295C34.0459 59.2797 33.946 59.2643 33.8462 59.249L33.8354 67.4736C33.9352 67.4889 34.0351 67.5042 34.1349 67.5195C34.2348 67.5348 34.3346 67.5501 34.4344 67.5655C34.5343 67.5808 34.6341 67.5961 34.734 67.6114C34.7917 67.5692 34.9336 67.642 35.0335 67.6574Z" fill="#F4B808" stroke="black" stroke-width="3" stroke-miterlimit="10" stroke-linejoin="round"/>
<path d="M33.8503 67.372L33.8611 59.1474C33.7613 59.1321 33.6193 59.0592 33.5195 59.0439C33.4197 59.0286 33.2777 58.9557 33.1779 58.9404C33.078 58.9251 32.9361 58.8522 32.8363 58.8369C32.7364 58.8216 32.5945 58.7487 32.4946 58.7334L32.4838 66.9579C32.6258 67.0308 32.7256 67.0461 32.8255 67.0614C32.9253 67.0768 33.0672 67.1496 33.1671 67.165C33.2669 67.1803 33.4088 67.2531 33.5087 67.2685C33.6085 67.2838 33.7084 67.2991 33.8503 67.372Z" fill="#F4B808" stroke="black" stroke-width="3" stroke-miterlimit="10" stroke-linejoin="round"/>
<path d="M32.4011 66.8446L32.4119 58.6201C32.3121 58.6048 32.1701 58.5319 32.128 58.4743C32.0282 58.459 31.8862 58.3862 31.8441 58.3286C31.7443 58.3133 31.6601 58.1982 31.5603 58.1829C31.4604 58.1675 31.3762 58.0524 31.2764 58.0371L31.2656 66.2616C31.3654 66.277 31.4496 66.3921 31.5495 66.4074C31.6493 66.4227 31.7335 66.5378 31.8333 66.5531C31.9332 66.5685 32.0174 66.6836 32.1172 66.6989C32.2014 66.814 32.3013 66.8293 32.4011 66.8446Z" fill="#F4B808" stroke="black" stroke-width="3" stroke-miterlimit="10" stroke-linejoin="round"/>
<path d="M49.1646 58.3798L49.1176 50.1975C49.0972 50.6542 49.0768 51.1109 48.9986 51.6098C48.9204 52.1088 48.8001 52.5502 48.6377 52.934C48.4597 53.4177 48.2973 53.8015 48.0194 54.2698C47.7993 54.6959 47.4793 55.1067 47.1594 55.5174C46.2728 56.6077 45.1602 57.51 43.9368 58.1398C42.6558 58.8118 41.3061 59.269 39.8879 59.5113C38.4697 59.7536 36.983 59.7809 35.4854 59.5512C33.9878 59.3214 32.5792 58.8498 31.2597 58.1365L31.2488 66.361C32.5684 67.0744 33.977 67.5459 35.4746 67.7757C36.9722 68.0055 38.4589 67.9781 39.8771 67.7358C41.2953 67.4936 42.7448 67.0517 43.926 66.3643C45.2071 65.6923 46.3198 64.79 47.2063 63.6997C47.5263 63.289 47.8462 62.8782 48.0664 62.4521C48.2865 62.026 48.5066 61.6 48.6846 61.1163C48.8627 60.6327 48.9829 60.1913 49.0455 59.7922C49.1237 59.2932 49.1441 58.8365 49.1646 58.3798Z" stroke="black" stroke-width="3" stroke-miterlimit="10" stroke-linejoin="round"/>
<path d="M26.1641 50.1992C26.1412 52.9548 26.1184 55.7104 26.1112 58.3662C26.1436 59.1376 26.2339 59.8668 26.4239 60.6112C26.614 61.3557 26.9616 62.0733 27.367 62.7486C27.7724 63.4239 28.3353 64.0723 28.956 64.6785C29.5767 65.2847 30.3128 65.8064 31.1645 66.2436L31.1753 58.0191C30.3236 57.5818 29.5875 57.0601 28.9668 56.454C28.3461 55.8478 27.7832 55.1994 27.3778 54.5241C26.9724 53.8487 26.6248 53.1312 26.4347 52.3867C26.229 51.742 26.1544 50.9131 26.1641 50.1992Z" fill="#F4B808"/>
<path d="M31.2066 66.3012L31.2174 58.0766C30.3658 57.6394 29.6296 57.1177 29.0089 56.5115C28.3882 55.9054 27.8253 55.2569 27.4199 54.5816C27.0145 53.9063 26.6669 53.1887 26.4768 52.4443C26.2868 51.6998 26.1544 50.9131 26.1641 50.1992L26.1112 58.3662C26.1436 59.1376 26.2339 59.8668 26.4239 60.6112C26.614 61.3557 26.9616 62.0733 27.367 62.7486C27.7724 63.4239 28.3353 64.0723 28.956 64.6785C29.6188 65.3422 30.3549 65.8639 31.2066 66.3012Z" fill="#F4B808" stroke="black" stroke-width="3" stroke-miterlimit="10" stroke-linejoin="round"/>
<path d="M26.1641 50.1992C26.1412 52.9548 26.1184 55.7104 26.1112 58.3662C26.1436 59.1376 26.2339 59.8668 26.4239 60.6112C26.614 61.3557 26.9616 62.0733 27.367 62.7486C27.7724 63.4239 28.3353 64.0723 28.956 64.6785C29.5767 65.2847 30.3128 65.8064 31.1645 66.2436L31.1753 58.0191C30.3236 57.5818 29.5875 57.0601 28.9668 56.454C28.3461 55.8478 27.7832 55.1994 27.3778 54.5241C26.9724 53.8487 26.6248 53.1312 26.4347 52.3867C26.229 51.742 26.1544 50.9131 26.1641 50.1992Z" stroke="black" stroke-width="3" stroke-miterlimit="10" stroke-linejoin="round"/>
<path d="M98.1711 68.9113L97.9245 60.6984C95.5692 59.4173 94.0801 57.5028 92.8531 55.2196C91.6262 52.9365 90.7613 50.3002 89.5704 47.4606C88.3796 44.621 86.9469 41.6932 84.6422 38.7849C82.3375 35.8766 79.1606 32.9878 74.55 30.441L74.6967 38.6386C79.3074 41.1854 82.4842 44.0742 84.8467 46.9403C87.1514 49.8486 88.6262 52.8339 89.817 55.6735C91.0079 58.5132 91.9305 61.1072 93.0997 63.4326C94.3267 65.7157 95.8158 67.6303 98.1711 68.9113Z" fill="#F4B808"/>
<path d="M98.1711 68.9113L102.934 71.547L102.588 63.2865L97.9245 60.6984C95.5692 59.4173 94.0801 57.5028 92.8531 55.2196C91.6262 52.9365 90.7613 50.3002 89.5704 47.4606C88.3796 44.621 86.9469 41.6932 84.6422 38.7849C82.3375 35.8766 79.1606 32.9878 74.55 30.441L74.6968 38.6386C79.3074 41.1854 82.4842 44.0742 84.8467 46.9403C87.1514 49.8486 88.6262 52.8339 89.817 55.6735C91.0079 58.5132 91.9305 61.1072 93.0997 63.4326C94.3267 65.7157 95.8158 67.6303 98.1711 68.9113Z" fill="#F4B808" stroke="black" stroke-width="3" stroke-miterlimit="10" stroke-linejoin="round"/>
<path d="M11.7725 57.5447L11.6619 65.7539C11.6968 64.2264 11.8315 62.7143 12.1238 61.1752C12.4161 59.6361 12.8082 58.1123 13.4 56.6192C13.9918 55.1261 14.6835 53.6483 15.475 52.1858C16.2665 50.7233 17.2577 49.2914 18.3908 47.9324C21.5014 44.0666 25.359 40.9797 29.8217 38.5987C34.1846 36.2024 39.1369 34.6118 44.2371 33.7081C49.3794 32.8621 54.654 32.8027 59.788 33.6414C64.9796 34.4379 70.0305 36.1325 74.6412 38.6793L74.4944 30.4817C69.8837 27.9349 64.8328 26.2403 59.741 25.4591C54.6071 24.6204 49.3325 24.6798 44.2479 25.4836C39.1633 26.2875 34.2531 27.9356 29.8903 30.3319C25.5274 32.7282 21.6121 35.8574 18.5171 39.6234C17.3839 40.9824 16.3928 42.4143 15.6013 43.8768C14.8098 45.3393 14.1181 46.8171 13.5263 48.3102C12.9345 49.8033 12.5424 51.3271 12.2501 52.8662C11.9421 54.5051 11.8074 56.0172 11.7725 57.5447Z" fill="#F4B808"/>
<path d="M13.7233 55.8538L13.834 47.6445C13.6872 47.9286 13.6403 48.2279 13.4936 48.512C13.4046 48.7538 13.2999 49.0954 13.2109 49.3372C13.1219 49.5791 13.0172 49.9207 12.9282 50.1625C12.8813 50.4618 12.7346 50.7459 12.6877 51.0453L12.577 59.2545C12.6239 58.9551 12.7129 58.7133 12.8176 58.3717C12.8645 58.0723 13.0112 57.7883 13.1003 57.5465C13.1893 57.3046 13.2939 56.963 13.3829 56.7212C13.4298 56.4219 13.5766 56.1378 13.7233 55.8538Z" fill="#F4B808" stroke="black" stroke-width="3" stroke-miterlimit="10" stroke-linejoin="round"/>
<path d="M12.5788 59.2561L12.6895 51.0469C12.6004 51.2887 12.5535 51.5881 12.4645 51.8299C12.3755 52.0717 12.3286 52.3711 12.2973 52.5706C12.2504 52.87 12.2191 53.0696 12.1722 53.369C12.1253 53.6683 12.094 53.8679 12.0471 54.1673L11.9365 62.3765C11.9834 62.0771 12.0147 61.8776 12.0616 61.5782C12.1085 61.2788 12.1398 61.0792 12.1867 60.7799C12.2336 60.4805 12.3226 60.2387 12.3539 60.0391C12.4008 59.7397 12.4898 59.4979 12.5788 59.2561Z" fill="#F4B808" stroke="black" stroke-width="3" stroke-miterlimit="10" stroke-linejoin="round"/>
<path d="M11.9362 62.3733L12.0469 54.1641C12.0577 54.4212 11.9687 54.663 11.9795 54.9201C11.9903 55.1773 11.9013 55.4191 11.9121 55.6762C11.923 55.9334 11.834 56.1752 11.8448 56.4323C11.8556 56.6894 11.8243 56.889 11.7774 57.1884L11.6668 65.3976C11.6559 65.1405 11.6451 64.8834 11.7341 64.6415C11.7233 64.3844 11.8123 64.1426 11.8015 63.8855C11.7907 63.6283 11.8797 63.3865 11.8688 63.1294C11.858 62.8723 11.8472 62.6151 11.9362 62.3733Z" fill="#F4B808" stroke="black" stroke-width="3" stroke-miterlimit="10" stroke-linejoin="round"/>
<path d="M11.6648 65.4006L11.7754 57.1914L11.7598 57.2912L11.7441 57.391L11.7285 57.4908L11.7128 57.5906L11.6022 65.7998L11.6178 65.7L11.6335 65.6002L11.6491 65.5004C11.7069 65.4582 11.6648 65.4006 11.6648 65.4006Z" fill="#F4B808" stroke="black" stroke-width="3" stroke-miterlimit="10" stroke-linejoin="round"/>
<path d="M11.7725 57.5447L11.6619 65.7539C11.6968 64.2264 11.8315 62.7143 12.1238 61.1752C12.4161 59.6361 12.8082 58.1123 13.4 56.6192C13.9918 55.1261 14.6835 53.6483 15.475 52.1858C16.2665 50.7233 17.2577 49.2914 18.3908 47.9324C21.5014 44.0666 25.359 40.9797 29.8217 38.5987C34.1846 36.2024 39.1369 34.6118 44.2371 33.7081C49.3794 32.8621 54.654 32.8027 59.788 33.6414C64.9796 34.4379 70.0305 36.1325 74.6412 38.6793L74.4944 30.4817C69.8837 27.9349 64.8328 26.2403 59.741 25.4591C54.6071 24.6204 49.3325 24.6798 44.2479 25.4836C39.1633 26.2875 34.2531 27.9356 29.8903 30.3319C25.5274 32.7282 21.6121 35.8574 18.5171 39.6234C17.3839 40.9824 16.3928 42.4143 15.6013 43.8768C14.8098 45.3393 14.1181 46.8171 13.5263 48.3102C12.9345 49.8033 12.5424 51.3271 12.2501 52.8662C11.9421 54.5051 11.8074 56.0172 11.7725 57.5447Z" stroke="black" stroke-width="3" stroke-miterlimit="10" stroke-linejoin="round"/>
<path d="M74.6832 38.7369C70.0725 36.1902 65.0216 34.4956 59.83 33.6991C54.6383 32.9026 49.3216 32.9044 44.2791 33.7658C39.1368 34.6119 34.2843 36.2178 29.8637 38.6563C25.5009 41.0527 21.5855 44.1818 18.4328 47.9901C15.3799 51.8136 13.3518 55.9477 12.3799 60.1927C11.408 64.4377 11.5078 68.6939 12.4954 72.8308C13.5407 76.9254 15.4737 80.9008 18.3414 84.4575C21.2091 88.0142 24.9693 91.0947 29.58 93.6415C34.1486 96.1307 38.5475 97.4187 42.683 98.1043C46.8185 98.7898 50.7063 98.7731 54.2524 98.653C57.8562 98.4905 61.2183 98.2399 64.1761 98.285C67.1761 98.3876 69.8718 98.8011 72.227 100.082L76.9375 102.644L80.148 98.7938L95.99 96.217L98.8902 109.027L112.88 116.64L128.664 114.106L131.438 126.743L147.238 124.108L149.912 136.73L173.502 132.992L169.585 113.946L99.5577 75.4069L102.826 71.5142L98.0733 68.8945C95.7181 67.6135 94.2289 65.6989 93.002 63.4158C91.775 61.1327 90.9101 58.4964 89.7193 55.6568C88.5284 52.8172 87.0958 49.8894 84.7489 46.9235C82.4863 44.0727 79.2938 41.2837 74.6832 38.7369ZM31.2062 66.3C29.8867 65.5866 28.798 64.7043 27.9981 63.6108C27.1826 62.617 26.598 61.4544 26.3285 60.2378C26.0591 59.0213 26.047 57.7932 26.3345 56.6111C26.622 55.4289 27.1669 54.2351 28.0534 53.1449C28.94 52.0546 30.0526 51.1523 31.3337 50.4803C32.6148 49.8082 33.9644 49.3511 35.4403 49.0665C36.8585 48.8243 38.3874 48.8545 39.885 49.0842C41.3826 49.314 42.7912 49.7855 44.1107 50.4989C45.4303 51.2123 46.5189 52.0947 47.3188 53.1882C48.1344 54.1819 48.719 55.3446 48.9884 56.5611C49.2579 57.7776 49.2699 59.0057 48.9824 60.1879C48.6949 61.37 48.15 62.5638 47.2635 63.654C46.377 64.7443 45.2643 65.6466 43.9833 66.3186C42.7022 66.9907 41.3526 67.4479 39.9344 67.6901C38.5162 67.9324 36.9873 67.9022 35.5318 67.73C33.9344 67.485 32.5258 67.0134 31.2062 66.3Z" fill="#FFCA31" stroke="black" stroke-width="3" stroke-miterlimit="10" stroke-linejoin="round"/>
<path d="M172.573 125.495L94.1027 84.28" stroke="black" stroke-width="3" stroke-linecap="round"/>
<path d="M69.7854 43.893C73.5548 45.9998 76.6253 48.6178 79.0259 51.561C81.3727 54.5436 82.9173 57.7832 83.674 61.1869C84.4307 64.5907 84.4142 68.0654 83.5457 71.5038C82.731 74.9028 81.0644 78.2655 78.4962 81.2983C76.0211 84.3456 72.8203 86.8519 69.241 88.7282C65.7011 90.6581 61.7435 91.9043 57.6328 92.6029C53.5222 93.3014 49.3268 93.32 45.1397 92.673C40.9526 92.0259 36.8668 90.7277 33.1367 88.6746C29.4065 86.6215 26.3753 84.0572 24.014 81.1677C21.6527 78.2782 20.0151 75.0242 19.2046 71.6598C18.3941 68.2954 18.3176 64.8063 19.093 61.3535C19.8685 57.9008 21.4958 54.4844 24.0247 51.3978C26.5142 48.2576 29.7151 45.7513 33.3088 43.782C36.8487 41.852 40.8746 40.4734 45.0245 39.8286" stroke="black" stroke-width="3" stroke-linecap="round"/>
</svg>
