<svg width="180" height="180" viewBox="0 0 180 180" fill="none" xmlns="http://www.w3.org/2000/svg">
<path d="M45.7004 11.6016L157.4 20.2016L147.8 31.8016L22.4004 22.0016L45.7004 11.6016ZM31.8004 56.7016L54.6004 39.4016L49.6004 55.9016L27.8004 70.1016L31.8004 56.7016ZM56.3004 153.202L70.0004 136.202L71.0004 143.802L68.0004 152.602L56.3004 153.202Z" fill="#B3B8EE"/>
<path d="M147.301 83.5984V32.1984L158.001 21.3984V66.4984L147.401 83.5984H147.301Z" fill="#B3B8EE"/>
<path d="M56.5 158L106.5 168V162.5L100 160L94.5 156.5L92.5 150.5V121L93 36.5H105.5L117.5 39.5L128 49.5L134.5 64.5L141 85H147L147.5 32L22.5 22L22 69.5L27 70.5L30.5 57.5L37 45L48 34L55.5 33L69 34L69.5 53L71 137L69.5 150.5L66 153H57L56.5 158Z" fill="#C6C9EF"/>
<path d="M106.5 162.5L119.5 138.5L114.5 137L109 134L107 130V114L110 37.5L93 36L92 135.5L93 156L98 159.5L106.5 162.5Z" fill="#B3B8EE"/>
<path fill-rule="evenodd" clip-rule="evenodd" d="M45.3 10.6016H46L56.1 11.4016L65.5 12.3016L74.3 13.1016L82.8 13.8016L91 14.4016L99.1 15.0016L107.4 15.6016L116 16.2016L125.2 16.7016L135 17.2016L146 17.8016L158 18.4016C158.206 18.4011 158.409 18.443 158.598 18.5245C158.787 18.6061 158.957 18.7256 159.098 18.8756C159.238 19.0257 159.347 19.2031 159.416 19.3968C159.485 19.5905 159.514 19.7963 159.5 20.0016L159.3 24.0016L158.9 67.0016C158.9 67.3016 158.9 67.6016 158.7 67.8016L148.8 85.8016C148.675 86.0391 148.488 86.2386 148.259 86.3793C148.031 86.52 147.768 86.5968 147.5 86.6016L141.5 86.7016C140.9 86.7016 140.3 86.3016 140.1 85.7016L136.6 74.6016L134.6 68.6016L132.6 63.2016L130.4 58.4016L128.2 54.2016L126 50.6016L123.7 47.6016L121.4 45.0016L119 43.0016L116.6 41.4016L114 40.2016L111.4 39.5016L111 39.4016L108.7 112.002L108.5 116.602V126.502L108.7 128.702L109.1 130.402L109.5 131.602L110 132.602L110.6 133.202L111.5 133.802L112.5 134.302L114 134.902L120.6 136.902C121.3 137.202 121.6 137.902 121.6 138.502L121.4 143.402C121.396 143.648 121.327 143.89 121.2 144.102L111 163.302L108.2 168.602C108.067 168.927 107.824 169.195 107.513 169.36C107.203 169.524 106.844 169.575 106.5 169.502L102.4 168.502L98.2 167.502L93.9 166.502L89.6 165.502L85.3 164.502L81 163.702L76.7 162.802L72.5 162.002L68.3 161.302L64.3 160.602L60.3 159.902L56.6 159.402C55.8 159.202 55.3 158.602 55.3 157.902L55.1 152.702C55.1 152.402 55.2 152.002 55.5 151.702L69.1 134.702V129.702L67.8 35.4016L58.8 34.6016L58.2 35.8016L56.6 39.4016L55 43.4016L53.4 47.9016L50.6 56.4016C50.4974 56.729 50.2856 57.0114 50 57.2016L27.9 71.9016C27.5 72.2016 27 72.3016 26.6 72.1016L21.6 70.7016C20.9 70.5016 20.5 70.0016 20.5 69.2016L20.7 65.5016V61.7016L21 58.0016V54.2016L21.1 50.2016V34.3016L21 30.3016L20.8 26.0016L20.6 22.0016C20.6 21.3016 20.9 20.7016 21.6 20.4016L45.3 10.6016ZM29.7 67.1016L47.9 54.9016L52.3 41.8016L38 53.7016L32.7 57.9016L31.4 61.9016L29.7 67.0016V67.1016ZM155.9 66.7016L148.9 79.6016L149.1 32.7016L156.3 24.3016L155.9 66.7016ZM154.9 21.3016L146.9 30.6016L133.9 29.8016L121.6 29.1016L110.5 28.3016L100.2 27.6016L90.6 26.9016L81.3 26.1016L72.3 25.4016L63.1 24.5016L53.7 23.6016L43.9 22.6016L33.4 21.6016L28.1 21.1016L46.1 13.5016L55.8 14.5016L65.2 15.3016L74.1 16.1016L82.5 16.8016L90.8 17.4016L98.9 18.0016L107.2 18.6016L115.8 19.2016L154.8 21.2016L154.9 21.3016ZM93.7 133.402L94.7 58.4016L107.7 47.7016L105.7 111.902L105.5 116.502V126.902L105.8 129.202V129.402L106.1 131.102V131.302L106.7 132.802L106.8 133.202L107.4 134.202C107.477 134.351 107.578 134.486 107.7 134.602L108.5 135.502L108.8 135.702L109.8 136.402L110 136.602L111.3 137.202C111.367 137.207 111.433 137.207 111.5 137.202L113 137.802H113.1L118 139.402L111.3 151.702L106.3 160.902L100.3 158.902L98.6 158.202L97.3 157.602L96.3 156.902L95.6 156.102L95 155.102L94.5 153.702L94.1 151.802L93.9 149.502L93.7 146.502V133.602V133.402ZM63.4 151.502L59.6 151.302L69.1 139.502V142.402L68.9 145.202L68.6 147.402L68.3 149.002L67.8 150.102L67.4 150.802L66.8 151.102L66.1 151.402L64.9 151.502H63.4ZM70.4 151.802L70.3 151.902L69.9 152.402L69.6 152.702C69.6 152.902 69.4 153.002 69.3 153.102L68.3 153.702L68 153.902L66.9 154.302H66.5L65.2 154.502H63.4L58.2 154.202V156.602L60.8 157.002L64.8 157.602L68.8 158.302L73 159.102L77.3 159.902L81.6 160.702L85.9 161.702L90.2 162.502L94.1 163.402L94.6 163.502L98.9 164.502L103.1 165.502L105.4 166.102V163.702L99.2 161.602L97.5 160.902H97.3L96 160.002H95.8L94.6 159.002L94.3 158.902L93.9 158.402L93.6 158.102L93.4 157.802L93.2 157.602L92.4 156.302V156.002L91.7 154.402V154.202L91.3 152.202C91.2952 152.135 91.2952 152.068 91.3 152.002L91 149.602L90.8 146.702V133.302L92 36.2016C91.9981 35.9866 92.0424 35.7737 92.13 35.5773C92.2175 35.3809 92.3463 35.2057 92.5075 35.0634C92.6687 34.9211 92.8587 34.8152 93.0644 34.7528C93.2701 34.6904 93.4869 34.6729 93.7 34.7016L109 36.1016L112 36.5016H112.2L115 37.4016H115.2L117.9 38.7016L118.1 38.8016L120.7 40.5016L120.9 40.6016L123.4 42.8016L123.5 42.9016L126 45.6016V45.7016L128.5 48.9016L130.8 52.7016V52.8016L133.1 57.1016L135.3 62.1016L137.4 67.5016V67.6016L139.4 73.6016L142.6 83.6016H145.9L146 33.6016L133.7 32.8016L121.4 32.0016L110.3 31.3016L100 30.6016L90.4 29.9016L81 29.0016L71.9 28.3016L62.7 27.4016L53.3 26.5016L43.5 25.5016L33 24.5016L23.6 23.5016V26.0016L23.8 30.1016V34.1016L23.9 38.2016V54.2016V58.0016L23.8 61.8016L23.7 65.6016L23.5 68.1016L26 68.8016L28.4 61.0016L30.1 56.0016L31.1 53.0016C31.7274 51.5799 32.3275 50.1463 32.9 48.7016L33.5 47.3016L34.8 44.9016L35.4 43.7016C35.7 43.0016 36.2 42.3016 36.7 41.6016L37.3 40.6016L38.7 38.7016L39.4 37.9016V37.8016L41.5 35.7016L43.1 34.4016L43.9 33.9016L45.6 32.9016L46.4 32.6016L48.2 31.9016L49 31.7016C50 31.4016 51 31.3016 52 31.3016H55L69.5 32.6016C70.2 32.7016 70.8 33.3016 70.8 34.1016L72.1 129.702V142.602L72 145.602L71.7 147.902V148.102L71.3 149.902L71.2 150.102L70.6 151.502L70.5 151.902L70.4 151.802Z" fill="black"/>
</svg>
