<svg width="180" height="180" viewBox="0 0 180 180" fill="none" xmlns="http://www.w3.org/2000/svg">
<path d="M170.652 140.651C170.777 140.243 170.897 139.829 171.007 139.419C171.526 137.474 171.887 135.599 172.117 133.809C172.208 133.15 172.272 132.542 172.319 131.973C172.327 131.871 172.332 131.772 172.341 131.672C172.352 131.513 172.37 131.338 172.375 131.189C172.42 130.773 172.443 130.302 172.461 129.82C172.494 129.19 172.507 128.672 172.496 128.047C172.496 127.852 172.492 127.656 172.487 127.459C172.487 127.455 172.487 127.451 172.487 127.447C172.487 127.426 172.487 127.404 172.487 127.383C172.487 127.369 172.487 127.354 172.489 127.341L172.487 127.375C172.487 127.366 172.487 127.359 172.487 127.349C172.487 127.308 172.487 127.26 172.487 127.22C172.487 127.174 172.483 127.12 172.482 127.074C172.453 125.434 172.344 124.267 172.288 123.683C172.278 123.58 172.262 123.463 172.251 123.354C172.236 123.216 172.22 123.079 172.202 122.937C172.195 122.875 172.189 122.815 172.18 122.754C172.175 122.711 172.169 122.668 172.164 122.625C172.155 122.555 172.146 122.48 172.137 122.409C172.121 122.282 172.105 122.16 172.089 122.033C172.05 121.732 172.007 121.423 171.959 121.1L171.928 120.864C171.88 120.492 171.801 120.077 171.715 119.655C171.566 118.887 171.355 118.006 171.209 117.307L170.717 115.29C170.702 115.229 170.685 115.174 170.67 115.116C170.669 115.108 170.669 115.099 170.667 115.092C170.658 115.06 170.645 115.018 170.636 114.985C170.541 114.629 170.446 114.292 170.35 113.976L170.305 113.813L170.283 113.75C170.265 113.692 170.247 113.64 170.229 113.585C170.222 113.561 170.213 113.53 170.207 113.507C170.195 113.476 170.183 113.441 170.171 113.409C170.161 113.379 170.15 113.34 170.14 113.309L170.117 113.246C170.111 113.23 170.105 113.212 170.1 113.195C169.917 112.618 169.751 112.173 169.537 111.691C169.454 111.495 169.404 111.384 169.401 111.38C169.368 111.307 169.326 111.224 169.29 111.148C169.145 110.827 169 110.514 168.843 110.188L168.677 109.829C168.663 109.804 168.647 109.772 168.633 109.747C168.62 109.722 168.605 109.688 168.593 109.663L168.393 109.304C168.219 108.98 168.046 108.671 167.87 108.359C167.834 108.292 167.794 108.215 167.758 108.15C167.739 108.114 167.708 108.071 167.687 108.033C167.681 108.02 167.671 108.002 167.664 107.99C167.618 107.909 167.553 107.813 167.502 107.727C167.391 107.544 167.29 107.372 167.168 107.185C167.02 106.956 166.879 106.749 166.731 106.536C166.695 106.484 166.652 106.418 166.618 106.368C166.609 106.357 166.598 106.342 166.59 106.33C166.59 106.329 166.589 106.328 166.589 106.328C166.518 106.222 166.445 106.119 166.373 106.016C166.276 105.878 166.179 105.74 166.078 105.601C164.364 103.208 162.421 101.27 160.44 99.7362C160.393 99.6972 160.355 99.668 160.308 99.6318C160.261 99.5956 160.215 99.558 160.166 99.5218C159.786 99.2239 159.463 98.9845 159.264 98.8439C159.192 98.7924 159.088 98.7214 159.002 98.6615C158.918 98.6016 158.84 98.5432 158.753 98.4819C158.586 98.3664 158.42 98.2648 158.252 98.1534C158.137 98.0782 158.029 98.0058 157.903 97.9237C157.887 97.9126 157.869 97.9014 157.852 97.8889L157.62 97.7316L157.634 97.7399L157.614 97.7274L157.607 97.7232C157.603 97.7205 157.598 97.7177 157.593 97.7163L157.506 97.662C157.377 97.5812 157.249 97.5033 157.12 97.4253L157.076 97.3975L157.007 97.3585C156.463 97.0328 155.921 96.7349 155.38 96.4551C155.368 96.4481 155.354 96.4411 155.341 96.4342L155.303 96.4161C151.437 94.4365 147.668 93.5804 144.42 93.1948C144.335 93.1837 144.249 93.1739 144.165 93.1642C144.029 93.1489 143.895 93.1335 143.761 93.1196C143.725 93.1155 143.686 93.1113 143.652 93.1071C143.609 93.1029 143.566 93.096 143.523 93.0918C142.712 93.0041 142.029 92.9554 141.243 92.9206C141.163 92.9164 141.074 92.9108 140.997 92.9066C141.049 92.908 141.103 92.9108 141.155 92.9122C140.781 92.8955 140.382 92.8802 139.98 92.8691C139.808 92.8635 139.647 92.8593 139.49 92.8551C139.245 92.8496 139.008 92.844 138.792 92.8412C138.769 92.8412 138.739 92.8412 138.715 92.8412H138.716C138.715 92.8412 138.713 92.8412 138.712 92.8412C138.249 92.8356 137.701 92.8482 137.186 92.8593C137.069 92.8621 136.948 92.8635 136.832 92.8663C136.806 92.8663 136.778 92.8677 136.752 92.8677C136.705 92.8677 136.652 92.8691 136.608 92.8691C136.597 92.8691 136.584 92.8704 136.573 92.8704C136.56 92.8704 136.544 92.8704 136.53 92.8718L136.248 92.8858C135.962 92.9025 135.664 92.915 135.362 92.9303C135.271 92.9345 135.177 92.9387 135.087 92.9442C134.82 92.9568 134.558 92.9707 134.326 92.986C134.007 93.0069 133.636 93.0375 133.265 93.0695C133.119 93.0806 132.973 93.0946 132.827 93.1071C132.626 93.1238 132.435 93.1405 132.254 93.1558L132.135 93.1656C132.13 93.1656 132.125 93.167 132.119 93.167C132.115 93.167 132.11 93.167 132.106 93.1683L131.987 93.1823C131.712 93.2129 131.413 93.2449 131.106 93.2783C130.712 93.3215 130.319 93.3646 129.93 93.4147C129.921 93.4161 129.913 93.4161 129.905 93.4175C129.634 93.4523 129.325 93.4955 129.011 93.5414L129.47 93.4746L128.753 93.5776C128.54 93.6082 128.349 93.6347 128.173 93.6611L127.995 93.6862C127.987 93.6876 127.98 93.689 127.971 93.6904C127.892 93.7029 127.793 93.7168 127.724 93.7266L127.714 93.728C127.712 93.728 127.711 93.728 127.71 93.728C127.708 93.728 127.706 93.728 127.704 93.7294C126.645 93.8881 125.477 94.0997 124.279 94.3391C124.247 94.346 124.215 94.3516 124.182 94.3586C123.975 94.4003 123.773 94.4393 123.566 94.4825C123.517 94.4922 123.469 94.5034 123.422 94.5131C123.39 94.5201 123.353 94.527 123.322 94.5326L123.296 94.5382C123.22 94.5549 123.135 94.5744 123.055 94.5911C122.879 94.6286 122.71 94.6634 122.528 94.7038C122.454 94.7191 122.381 94.7358 122.308 94.7525C122.115 94.7957 121.926 94.8388 121.735 94.8834C117.241 95.8871 112.9 97.2304 108.886 98.8717C108.416 99.0596 107.988 99.249 107.552 99.4369C107.537 99.4438 107.523 99.4494 107.508 99.4564C107.252 99.565 107.011 99.6694 106.785 99.7682C106.73 99.7933 106.673 99.8155 106.618 99.8406L106.565 99.8629C106.56 99.8656 106.551 99.8698 106.544 99.8726C106.537 99.8754 106.529 99.8796 106.524 99.881C106.482 99.9005 106.435 99.9227 106.392 99.9422C105.265 100.443 104.615 100.769 104.598 100.777C104.315 100.915 103.988 101.082 103.66 101.251C103.58 101.291 103.498 101.334 103.416 101.376C103.261 101.455 103.119 101.529 102.972 101.604L102.701 101.742C102.687 101.751 102.668 101.76 102.652 101.769C102.637 101.777 102.616 101.787 102.601 101.795L102.406 101.904C102.357 101.93 102.306 101.959 102.259 101.986C102.125 102.06 101.999 102.129 101.859 102.206C101.627 102.334 101.389 102.467 101.149 102.604C101.148 102.605 101.145 102.605 101.144 102.607C101.121 102.619 101.098 102.633 101.076 102.646C100.978 102.701 100.864 102.764 100.774 102.815C100.741 102.835 100.699 102.863 100.665 102.882C100.146 103.187 99.6115 103.514 99.0578 103.875L98.9665 103.931C98.9305 103.956 98.8876 103.983 98.8502 104.01C98.8115 104.034 98.7644 104.064 98.727 104.088L98.4571 104.276C98.4405 104.287 98.4253 104.298 98.4087 104.309C98.1997 104.453 97.9893 104.596 97.7748 104.746C97.5063 104.931 97.2433 105.114 97.0163 105.279C97.0149 105.281 97.0122 105.282 97.0108 105.284C96.4281 105.704 95.8841 106.134 95.3582 106.567C95.3513 106.573 95.3443 106.577 95.3374 106.582C95.336 106.584 95.3347 106.585 95.3333 106.587C95.2461 106.659 95.1589 106.731 95.0717 106.804C94.8738 106.971 94.6772 107.138 94.4862 107.306C94.3907 107.39 94.2924 107.472 94.1997 107.556C94.0544 107.685 93.9118 107.821 93.7693 107.955C93.7042 108.015 93.6419 108.076 93.5783 108.136C93.4025 108.303 93.2309 108.469 93.0648 108.633C92.907 108.79 92.7506 108.949 92.5942 109.11C92.3575 109.357 92.1374 109.594 91.9243 109.829L91.772 109.989C91.7513 110.014 91.7264 110.045 91.7056 110.07C91.4149 110.397 91.1492 110.709 90.9097 111C90.8918 111.02 90.871 111.043 90.853 111.064L90.763 111.182C90.2551 111.81 89.8634 112.34 89.6239 112.68C89.5077 112.845 89.4066 113.004 89.2959 113.167C89.1741 113.345 89.0537 113.522 88.9388 113.697C88.8807 113.786 88.8253 113.876 88.77 113.963C88.5886 114.249 88.4156 114.528 88.2523 114.804C88.2315 114.84 88.2094 114.876 88.1886 114.913C87.3471 116.346 86.7561 117.623 86.3589 118.616C86.3478 118.642 86.3381 118.667 86.3271 118.694C86.3229 118.706 86.316 118.72 86.3118 118.733C86.2966 118.77 86.2855 118.802 86.2703 118.84C86.0696 119.342 85.8883 119.824 85.7264 120.281C85.7181 120.303 85.7125 120.328 85.7042 120.35C85.6904 120.389 85.6765 120.429 85.6641 120.468C85.6502 120.509 85.6322 120.555 85.6184 120.594C85.6101 120.619 85.6004 120.652 85.5921 120.679C85.354 121.375 85.1976 121.898 85.098 122.273C85.0952 122.285 85.0911 122.296 85.0883 122.309C85.0495 122.458 85.0163 122.59 84.9928 122.69C84.9042 123.076 84.7935 123.53 84.6897 123.976C84.6482 124.167 84.6053 124.355 84.5679 124.547C84.5637 124.564 84.5582 124.586 84.5554 124.603C84.5499 124.634 84.543 124.67 84.5374 124.702C84.5333 124.728 84.5236 124.762 84.5194 124.788C84.5139 124.819 84.5098 124.855 84.5056 124.886C84.4544 125.179 84.4032 125.492 84.3547 125.81C84.3478 125.854 84.3409 125.896 84.3326 125.941C84.334 125.932 84.3367 125.924 84.3381 125.916C84.3326 125.955 84.3257 125.995 84.3201 126.034C84.298 126.19 84.2648 126.34 84.2454 126.498L84.2412 126.523C84.2385 126.55 84.2343 126.588 84.2316 126.616C84.2274 126.645 84.2219 126.68 84.2177 126.708L84.1803 127.113C84.125 127.629 84.0682 128.175 84.0378 128.632C84.0378 128.64 84.0115 129.078 83.9976 129.723C83.9976 129.737 83.9949 129.749 83.9935 129.762L83.9893 130.323L83.9824 130.546V130.582C83.9824 130.625 83.9838 130.668 83.9838 130.71V130.716C83.9838 130.72 83.9838 130.724 83.9838 130.727V130.735L83.9852 130.82V130.763L83.9935 130.956C84.0018 131.487 84.0226 132.055 84.0696 132.62C84.1374 133.438 84.172 133.807 84.2828 134.439L84.2883 134.491L84.316 134.654C84.3174 134.666 84.3201 134.683 84.3215 134.694C84.3243 134.707 84.3271 134.722 84.3298 134.734L84.3381 134.786C84.3409 134.803 84.3437 134.822 84.3464 134.839L84.352 134.872C84.352 134.87 84.352 134.865 84.3506 134.863C84.4198 135.257 84.4945 135.62 84.5734 135.98C84.5942 136.078 84.6136 136.167 84.6343 136.26C84.6385 136.28 84.6399 136.298 84.6426 136.316C84.6399 136.305 84.6412 136.294 84.6385 136.284C84.6551 136.36 84.6717 136.443 84.6897 136.515L85.1824 138.532C85.2156 138.664 85.2461 138.787 85.2765 138.908C85.2765 138.907 85.2765 138.907 85.2752 138.905C85.2752 138.907 85.2765 138.909 85.2765 138.911C85.5063 139.829 85.6682 140.441 85.88 141.109C85.9783 141.432 86.0779 141.742 86.1831 142.021L86.6136 143.198C86.7188 143.489 86.8212 143.783 86.9305 144.067L87.1229 144.593L86.9693 144.162C87.08 144.447 87.1976 144.72 87.3111 144.998C87.3457 145.086 87.379 145.171 87.4108 145.253C87.4689 145.405 87.5257 145.55 87.588 145.712L87.6267 145.793C88.0184 146.756 88.3063 147.343 88.8212 148.332C88.8364 148.362 88.8516 148.391 88.8668 148.42C88.8904 148.466 88.9153 148.515 88.9402 148.562C88.9402 148.563 88.9416 148.565 88.9416 148.565C89.2876 149.3 89.7928 150.164 90.2758 150.955C91.9561 153.825 94.1596 156.809 97.0523 159.608C101.023 163.602 105.695 166.794 110.727 168.866C111.402 169.156 112.065 169.418 112.688 169.644H112.687H112.688C112.821 169.692 112.966 169.751 113.094 169.794C113.117 169.802 113.149 169.814 113.174 169.822C113.2 169.832 113.225 169.841 113.253 169.851L113.274 169.859C113.276 169.859 113.279 169.861 113.281 169.862C113.822 170.057 114.384 170.239 114.958 170.419L115.314 170.54C115.39 170.561 115.479 170.586 115.559 170.608C115.563 170.61 115.566 170.61 115.569 170.611C115.617 170.628 115.674 170.647 115.722 170.663L115.796 170.682C115.832 170.693 115.865 170.706 115.902 170.716C116.039 170.755 116.172 170.787 116.308 170.824C117.319 171.117 118.425 171.399 119.53 171.608C119.526 171.608 119.523 171.607 119.52 171.607L119.535 171.609C119.602 171.622 119.668 171.637 119.735 171.65C119.891 171.678 120.042 171.704 120.194 171.73L120.464 171.786C120.543 171.799 120.611 171.808 120.687 171.82C120.894 171.856 121.103 171.889 121.311 171.923C121.372 171.932 121.438 171.943 121.498 171.953L121.636 171.977C121.694 171.984 121.757 171.991 121.815 171.999C121.989 172.024 122.168 172.052 122.338 172.074C122.532 172.101 122.726 172.124 122.919 172.148C123.24 172.187 123.574 172.225 123.917 172.257C123.931 172.258 123.945 172.259 123.959 172.261C124.042 172.269 124.121 172.278 124.205 172.284C124.237 172.287 124.27 172.291 124.302 172.294C124.403 172.303 124.512 172.31 124.616 172.318C124.769 172.33 124.929 172.342 125.088 172.353C125.24 172.362 125.391 172.374 125.551 172.383C125.779 172.397 126.007 172.411 126.236 172.422C126.266 172.422 126.299 172.424 126.331 172.424L126.478 172.428C126.942 172.446 127.427 172.461 127.952 172.47C133.29 172.559 141.867 171.632 150.662 166.312C151.163 166.017 151.67 165.701 152.184 165.364L152.19 165.362C152.195 165.357 152.202 165.353 152.208 165.349C152.276 165.305 152.345 165.257 152.413 165.213C152.447 165.19 152.492 165.163 152.526 165.142L152.651 165.055C152.929 164.869 153.213 164.673 153.499 164.469C153.602 164.398 153.703 164.329 153.801 164.261C153.837 164.235 153.873 164.215 153.909 164.188C153.974 164.142 154.032 164.096 154.096 164.05C154.144 164.016 154.2 163.978 154.245 163.945C154.398 163.832 154.523 163.736 154.655 163.638C154.829 163.507 155.002 163.378 155.17 163.248C155.449 163.034 155.703 162.835 155.946 162.636C155.97 162.618 155.991 162.598 156.014 162.58C156.092 162.516 156.169 162.454 156.248 162.388C156.29 162.353 156.335 162.313 156.377 162.277C156.485 162.186 156.594 162.096 156.699 162.007C156.728 161.982 156.756 161.962 156.785 161.937C156.807 161.919 156.834 161.895 156.856 161.876C156.875 161.859 156.894 161.842 156.914 161.826C157.389 161.426 157.896 160.963 158.41 160.477C158.504 160.391 158.597 160.304 158.685 160.223C158.701 160.21 158.712 160.2 158.728 160.184L158.737 160.176C159.168 159.771 159.538 159.399 160.028 158.886C160.049 158.865 160.074 158.84 160.094 158.819C160.158 158.753 160.212 158.689 160.274 158.625C160.378 158.515 160.475 158.414 160.591 158.29C160.627 158.252 160.666 158.205 160.702 158.167C161.303 157.521 161.863 156.876 162.395 156.207C162.407 156.192 162.422 156.175 162.435 156.16L162.559 156.015C162.597 155.966 162.641 155.907 162.678 155.857C162.856 155.634 163.031 155.407 163.206 155.176C163.217 155.162 163.228 155.148 163.239 155.133C163.275 155.087 163.312 155.041 163.348 154.993C163.429 154.89 163.519 154.779 163.595 154.682C163.798 154.423 164.014 154.132 164.233 153.83C164.409 153.587 164.58 153.341 164.75 153.093C164.773 153.061 164.793 153.031 164.814 153C165.012 152.709 165.207 152.414 165.397 152.116C165.899 151.343 166.38 150.537 166.78 149.793C166.958 149.472 167.131 149.144 167.318 148.774C167.369 148.683 167.426 148.583 167.474 148.497L167.772 147.867C167.777 147.858 167.782 147.848 167.786 147.838C167.852 147.707 167.914 147.583 167.973 147.465C168.135 147.134 168.306 146.802 168.457 146.474C168.735 145.886 168.947 145.395 169.186 144.788C169.245 144.649 169.299 144.517 169.35 144.39C169.429 144.194 169.508 143.999 169.582 143.802C169.755 143.354 169.903 142.939 170.058 142.462C170.064 142.448 170.068 142.437 170.074 142.422C170.076 142.412 170.081 142.401 170.085 142.391C170.229 141.972 170.378 141.551 170.508 141.138C170.562 140.977 170.607 140.81 170.652 140.651Z" fill="#D21830" stroke="black" stroke-width="3" stroke-miterlimit="10" stroke-linecap="round"/>
<path d="M93.2611 155.13C104.657 132.634 99.3235 113.922 94.5754 107.367C94.0365 107.735 88.6322 112.307 88.6322 112.307C73.9407 130.137 86.5731 146.479 93.1429 154.977L93.2611 155.13Z" fill="black" stroke="black" stroke-width="3"/>
<path d="M84.5156 135.048L84.4883 134.879C84.4896 134.886 84.4896 134.893 84.491 134.9L84.5156 135.048Z" fill="#E7899B" stroke="black" stroke-width="3" stroke-miterlimit="10" stroke-linecap="round"/>
<path d="M84.3945 126.364C84.4149 126.237 84.4407 126.084 84.4638 125.941C84.457 125.98 84.4448 126.017 84.438 126.056C84.4231 126.148 84.4081 126.27 84.3945 126.364Z" fill="#E7899B" stroke="black" stroke-width="3" stroke-miterlimit="10" stroke-linecap="round"/>
<path d="M141.483 92.9248C141.421 92.9234 141.35 92.9207 141.285 92.918C141.408 92.9234 141.536 92.9288 141.651 92.9343L141.483 92.9248Z" fill="#E7899B" stroke="black" stroke-width="3" stroke-miterlimit="10" stroke-linecap="round"/>
<path d="M10.1888 144.752C10.1321 144.61 10.067 144.443 10.002 144.277L10.1597 144.679C10.168 144.701 10.1805 144.73 10.1888 144.752Z" fill="#6A0014"/>
<path d="M95.4999 126.661C95.4764 125.538 95.4514 124.945 95.3283 123.882L95.3227 123.789L95.3144 123.728C95.3116 123.692 95.3103 123.663 95.3075 123.626C95.3047 123.59 95.2992 123.558 95.2964 123.522C95.295 123.509 95.295 123.5 95.2936 123.487C95.259 123.036 95.2023 122.534 95.1359 122.018C95.1206 121.904 95.1054 121.787 95.0888 121.675C94.9518 120.686 94.7746 119.67 94.5753 118.832C94.5587 118.761 94.5338 118.676 94.5172 118.604C94.4549 118.329 94.3898 118.054 94.3206 117.775C94.2238 117.356 94.1283 116.943 94.0217 116.497C93.6895 115.096 93.0445 113.289 92.5435 111.93L92.5407 111.92C92.5421 111.923 92.5421 111.924 92.5435 111.927C92.5421 111.924 92.5421 111.922 92.5407 111.919V111.918C92.5379 111.909 92.5352 111.901 92.531 111.892C92.2999 111.29 91.9898 110.485 91.7587 109.881V109.88C91.7532 109.866 91.7476 109.852 91.7421 109.838C91.7407 109.835 91.7407 109.832 91.7407 109.829C91.7379 109.822 91.7338 109.815 91.731 109.809C91.5359 109.309 91.3255 108.826 91.111 108.369C91.0999 108.344 91.086 108.312 91.0764 108.288C91.0722 108.281 91.0681 108.272 91.0639 108.263C91.0611 108.256 91.0556 108.245 91.0528 108.238L91.0113 108.159C90.7954 107.684 90.6514 107.416 90.3982 106.967C89.9359 106.125 89.5165 105.471 89.2674 105.121C89.2549 105.105 89.248 105.094 89.2369 105.078C88.9324 104.624 88.6182 104.191 88.3082 103.785C88.2777 103.745 88.2431 103.695 88.2141 103.657C88.2016 103.649 88.1919 103.637 88.185 103.629C87.767 103.065 87.5636 102.834 87.0168 102.213C86.7317 101.889 86.4978 101.631 86.2764 101.398C83.8168 98.6928 80.4909 96.0659 76.1034 94.4497C75.6688 94.2743 75.2646 94.1337 74.7982 93.9889L74.6971 93.95C74.6473 93.936 74.5836 93.9179 74.531 93.9026C74.466 93.8804 74.3899 93.8539 74.3262 93.833C74.2224 93.7982 74.0785 93.7537 73.9165 93.7063C72.1629 93.162 70.0203 92.7416 67.0501 92.7667C66.8799 92.7667 66.7193 92.7681 66.5574 92.7723C66.5214 92.7723 66.4771 92.7723 66.4452 92.7723C66.3055 92.7723 66.1366 92.7848 65.9857 92.789C65.8625 92.7945 65.7324 92.7959 65.6176 92.8029C64.9338 92.8363 64.1629 92.9045 63.3255 93.002C63.2909 93.0061 63.2563 93.0103 63.2217 93.0145C63.1677 93.0214 63.1151 93.027 63.0612 93.034C62.9186 93.0507 62.776 93.0674 62.6307 93.0855C62.5048 93.1022 62.3802 93.1189 62.2515 93.137C62.1352 93.1523 62.0217 93.1704 61.9055 93.1857C61.8321 93.1955 61.7615 93.201 61.6882 93.2122C61.6079 93.2233 61.5235 93.2414 61.4432 93.2525C61.4017 93.2581 61.3601 93.2637 61.3186 93.2706C61.021 93.3166 60.711 93.3695 60.401 93.4224C60.0314 93.4836 59.6605 93.5476 59.2854 93.6173C59.2425 93.6256 59.2024 93.6326 59.1594 93.6409C59.1276 93.6465 59.093 93.6548 59.0598 93.6604C58.9671 93.6785 58.8729 93.698 58.7802 93.7161C58.4328 93.7843 58.0882 93.8483 57.7325 93.9249C56.5421 94.1727 55.3546 94.4483 54.228 94.749C53.9885 94.813 53.7518 94.8757 53.5152 94.9397C53.2065 95.0219 52.8882 95.1082 52.5671 95.1973C52.3276 95.2627 52.1006 95.3239 51.8958 95.3796L51.6245 95.4604C51.4736 95.5035 51.3145 95.5509 51.1608 95.5954C50.9048 95.6692 50.6377 95.7499 50.3691 95.8293C50.192 95.8822 50.0245 95.9295 49.8446 95.9838C49.5013 96.0868 49.1456 96.2023 48.7968 96.3109C48.7027 96.3402 48.6169 96.3666 48.5214 96.3972C43.7782 97.8854 38.5934 99.8496 33.655 102.066C33.5844 102.096 33.518 102.128 33.4474 102.159C33.0501 102.334 32.6003 102.538 32.1048 102.766C32.0813 102.777 32.0564 102.788 32.0328 102.799C30.2584 103.618 27.9332 104.751 25.4861 106.101L25.4737 106.108C25.4723 106.11 25.4695 106.111 25.4681 106.111C25.464 106.114 25.4585 106.117 25.4543 106.118L25.3906 106.154C25.0806 106.326 24.7706 106.5 24.4578 106.678C24.2861 106.775 24.1131 106.873 23.9429 106.97C23.9277 106.978 23.9083 106.99 23.8931 106.998C23.8446 107.026 23.7851 107.063 23.7339 107.093C23.6425 107.145 23.5526 107.2 23.4612 107.253C23.2633 107.368 23.0681 107.481 22.8716 107.598C22.6751 107.715 22.4841 107.833 22.2917 107.952C22.1034 108.067 21.9152 108.181 21.7325 108.297C20.2432 109.229 18.8633 110.19 17.5927 111.21C17.3242 111.423 17.0682 111.635 16.8162 111.847C16.7996 111.86 16.7844 111.874 16.7678 111.888C16.2515 112.325 15.7796 112.758 15.3464 113.19C14.9145 113.606 14.6571 113.885 14.5519 114.003C14.4882 114.075 14.4384 114.132 14.3789 114.198C14.2792 114.305 14.181 114.412 14.0841 114.521C13.99 114.627 13.8958 114.731 13.8031 114.838L13.7436 114.902C13.6938 114.966 13.6287 115.047 13.5747 115.115C13.5512 115.143 13.5249 115.172 13.5028 115.2C13.4543 115.256 13.4003 115.317 13.3547 115.37L13.3035 115.438C13.1512 115.622 13.0086 115.799 12.8702 115.981C12.8398 116.02 12.8107 116.06 12.7817 116.099C12.6322 116.298 12.4758 116.517 12.2986 116.772L12.2765 116.801L12.2446 116.85C12.1823 116.935 12.1298 117.01 12.0675 117.099C11.9872 117.217 11.9014 117.355 11.8183 117.484C11.6716 117.711 11.5291 117.942 11.3907 118.174L11.2855 118.338L11.1872 118.515C11.1609 118.556 11.1291 118.608 11.1041 118.648L10.9519 118.938L10.8716 119.084C10.8343 119.151 10.7941 119.215 10.7581 119.283C10.7526 119.291 10.7471 119.3 10.7415 119.308L10.6834 119.419C10.5865 119.603 10.4952 119.793 10.4038 119.98C10.354 120.078 10.2986 120.184 10.2529 120.277C10.2059 120.373 10.1685 120.465 10.1242 120.561C10.1145 120.582 10.1048 120.603 10.0952 120.624C9.94429 120.945 9.80173 121.265 9.67024 121.58C9.66055 121.602 9.65225 121.625 9.64394 121.647C9.60519 121.743 9.5692 121.836 9.53183 121.931C9.52768 121.941 9.52353 121.949 9.51937 121.959C9.51107 121.979 9.50277 122.003 9.49446 122.024C9.48754 122.044 9.47924 122.062 9.47232 122.081C9.46955 122.088 9.46678 122.095 9.46401 122.102L9.45986 122.115C9.43356 122.183 9.4045 122.252 9.3782 122.321C9.36989 122.341 9.36159 122.361 9.35467 122.382C9.31453 122.488 9.27854 122.589 9.24117 122.694C9.10138 123.074 8.96574 123.47 8.83425 123.882C8.26678 125.634 7.90969 127.346 7.7173 128.993C7.68131 129.284 7.65225 129.582 7.62595 129.881C7.61073 130.058 7.5872 130.237 7.57612 130.413C7.55675 130.686 7.54706 130.967 7.5346 131.247C7.5346 131.252 7.5346 131.258 7.5346 131.263C7.52353 131.518 7.51661 131.773 7.51246 132.033C7.50692 132.292 7.50554 132.555 7.50554 132.828C7.50415 132.916 7.50415 133.013 7.50277 133.092C7.50415 133.038 7.50554 132.969 7.50554 132.912C7.50554 132.925 7.50554 132.941 7.50554 132.953L7.50138 133.052C7.50138 133.065 7.5 133.079 7.5 133.091C7.5 133.092 7.5 133.095 7.5 133.097V133.102C7.5 133.109 7.5 133.12 7.50138 133.127C7.50138 133.134 7.50138 133.145 7.50138 133.152L7.5083 133.299C7.5083 133.303 7.5083 133.308 7.5083 133.312C7.51799 133.763 7.53737 134.23 7.57059 134.71C7.57612 134.796 7.57889 134.897 7.58443 134.977L7.5872 135.009C7.5872 135.015 7.5872 135.021 7.58858 135.026C7.58997 135.036 7.59135 135.044 7.59135 135.054L7.65502 135.746L7.69516 136.028C7.69516 136.034 7.69516 136.04 7.69516 136.045L7.71453 136.181C7.73253 136.336 7.75052 136.485 7.76713 136.627L7.78374 136.773L7.78927 136.805C7.78927 136.811 7.79066 136.816 7.79066 136.822L7.79619 136.851C7.79758 136.865 7.80035 136.879 7.80311 136.891L7.90415 137.528L7.85986 137.216C7.85986 137.22 7.86125 137.224 7.86263 137.228L7.90415 137.528C7.95675 137.82 8.00796 138.075 8.06055 138.321C8.07716 138.405 8.09239 138.502 8.109 138.579C8.11038 138.588 8.11453 138.6 8.11592 138.609C8.1173 138.618 8.11868 138.626 8.12007 138.634C8.17682 138.89 8.24602 139.166 8.32353 139.451C8.34844 139.543 8.3692 139.624 8.39273 139.715C8.41765 139.811 8.44256 139.905 8.46886 140.001C8.47993 140.043 8.491 140.086 8.50207 140.127L8.5436 140.29C8.54637 140.298 8.54913 140.308 8.5519 140.316C8.55467 140.324 8.55744 140.334 8.55882 140.342C8.57405 140.386 8.59204 140.441 8.60726 140.487C8.75675 140.938 8.92284 141.46 9.08339 141.892C9.08893 141.906 9.09169 141.921 9.09723 141.935C9.09585 141.931 9.09585 141.925 9.09308 141.92C9.09585 141.928 9.1 141.938 9.10277 141.946C9.10415 141.95 9.10415 141.954 9.10692 141.959C9.10692 141.96 9.10692 141.96 9.1083 141.961C9.11107 141.97 9.11384 141.978 9.11799 141.986L9.89031 143.998C9.92353 144.083 9.96366 144.183 10.0024 144.281L9.90138 144.023L10.7208 146.014L11.0446 146.676C11.1443 146.909 11.2439 147.139 11.3339 147.347L11.5872 147.844C11.8266 148.347 12.0675 148.83 12.3069 149.257C12.7733 150.171 13.4889 151.294 14.055 152.206L14.1214 152.318C14.1311 152.332 14.1422 152.348 14.1519 152.362C14.1657 152.384 14.1823 152.41 14.1962 152.433C14.2917 152.589 14.5851 153.028 14.9976 153.616C15.3505 154.124 15.7214 154.629 16.109 155.132C16.1228 155.15 16.1367 155.172 16.1505 155.19C16.79 156.066 17.7076 157.189 18.4661 157.963C18.4744 157.972 18.4827 157.98 18.491 157.988C18.5187 158.019 18.545 158.05 18.5726 158.08C19.0612 158.605 19.5152 159.069 19.9512 159.506C20.0467 159.603 20.1422 159.699 20.2377 159.794C20.4605 160.018 20.6778 160.234 20.8813 160.425C20.891 160.434 20.9048 160.445 20.9145 160.455C22.0813 161.572 23.2661 162.577 24.4564 163.479C25.673 164.423 27.8861 165.986 30.9463 167.553L30.974 167.569L31.1553 167.658C31.4847 167.825 31.8183 167.992 32.1671 168.158C32.2086 168.177 32.2571 168.205 32.2972 168.224C32.3512 168.251 32.4162 168.279 32.473 168.305L32.5726 168.354C33.5221 168.819 34.5588 169.243 35.5567 169.612L35.5913 169.626C35.6079 169.632 35.6287 169.639 35.6467 169.646C35.7532 169.685 35.8598 169.724 35.965 169.761C35.9844 169.768 36.0051 169.778 36.0245 169.785L35.9567 169.761C35.9872 169.772 36.0135 169.781 36.0439 169.792C36.0591 169.797 36.0757 169.804 36.091 169.811L36.2045 169.849C36.3249 169.892 36.4384 169.931 36.556 169.971C36.6349 169.999 36.7138 170.026 36.7941 170.054C37.0404 170.137 37.2744 170.215 37.5027 170.29C37.6577 170.342 37.8141 170.392 37.9733 170.442C38.0245 170.459 38.0799 170.477 38.1311 170.492C38.3069 170.548 38.484 170.601 38.6626 170.655C38.7401 170.679 38.8162 170.702 38.891 170.726L39.0501 170.777L39.1872 170.816C39.273 170.84 39.3754 170.864 39.4654 170.887C39.9678 171.031 40.2764 171.112 40.2875 171.114C40.3705 171.135 40.4425 171.151 40.5242 171.17C40.7788 171.234 41.0432 171.293 41.3034 171.354C41.4654 171.391 41.6356 171.432 41.792 171.467C41.9179 171.494 42.0384 171.526 42.1671 171.553C42.2584 171.572 42.3512 171.583 42.4425 171.603C42.5629 171.628 42.6903 171.656 42.8079 171.68C42.7775 171.674 42.747 171.671 42.7166 171.666L42.8342 171.685C42.9519 171.709 43.0667 171.73 43.1802 171.752C43.2107 171.759 43.248 171.767 43.2785 171.774L43.4044 171.792C43.8653 171.877 44.3027 171.95 44.7207 172.011C44.8301 172.028 44.9394 172.044 45.0487 172.06C45.1373 172.072 45.2287 172.085 45.3159 172.096C45.4224 172.11 45.5276 172.124 45.6328 172.136L45.7145 172.15L46.2764 172.217C46.8148 172.275 47.2134 172.317 47.5844 172.349C47.6217 172.352 47.6591 172.355 47.6965 172.359C47.965 172.381 48.2294 172.399 48.5159 172.413C48.6653 172.423 48.8134 172.427 48.9629 172.434C49.0127 172.438 49.0612 172.441 49.111 172.445C49.1221 172.445 49.5387 172.472 50.2114 172.487C50.3262 172.49 50.4425 172.491 50.5574 172.494C50.9034 172.499 51.2965 172.501 51.7297 172.497C51.7809 172.497 51.8321 172.497 51.8833 172.495C52.2377 172.494 52.5518 172.486 52.9075 172.47C52.9671 172.467 53.0307 172.465 53.0916 172.462C53.1152 172.461 53.1387 172.461 53.1608 172.459C53.9774 172.424 54.8591 172.363 55.7532 172.261C55.8487 172.252 55.9442 172.239 56.0411 172.228C56.0549 172.227 56.0688 172.225 56.0812 172.224C56.1532 172.215 56.2363 172.202 56.3096 172.192L56.7705 172.138C56.9532 172.111 57.1456 172.082 57.3435 172.053C57.4598 172.036 57.583 172.022 57.6979 172.004C57.8252 171.984 57.9498 171.964 58.0771 171.943C58.1006 171.938 58.1228 171.936 58.1463 171.932C58.4217 171.887 58.6972 171.842 58.9726 171.792C59.129 171.764 59.2826 171.734 59.4376 171.703C59.446 171.702 59.4543 171.7 59.4612 171.699C59.4847 171.695 59.5068 171.691 59.5304 171.685C59.5857 171.674 59.6397 171.664 59.6951 171.654C59.7643 171.641 59.8293 171.629 59.8999 171.616C59.9415 171.607 59.9844 171.597 60.0259 171.589C60.3567 171.522 60.7041 171.447 61.0639 171.366C61.2356 171.327 61.4058 171.288 61.5774 171.247C62.0106 171.142 62.4591 171.031 62.9338 170.901C62.9975 170.885 63.0584 170.869 63.1207 170.853L64.0757 170.574C64.2598 170.519 64.4909 170.445 64.6875 170.382C64.6736 170.386 64.6639 170.39 64.6501 170.395L64.7082 170.375C64.7151 170.374 64.7234 170.371 64.7304 170.368L64.7747 170.354C64.8023 170.345 64.8383 170.333 64.8688 170.324C64.9947 170.282 65.1179 170.243 65.2549 170.196L65.3269 170.172L65.4279 170.137C68.776 169.014 71.6466 167.587 74.0618 166.108C74.1532 166.053 74.2653 165.987 74.3387 165.943C74.347 165.937 74.358 165.93 74.3663 165.926C74.3746 165.921 74.3899 165.912 74.3982 165.907C74.8106 165.657 75.2189 165.393 75.6106 165.131C75.8279 164.988 76.0355 164.844 76.2445 164.7C76.3885 164.599 76.5269 164.503 76.6612 164.409L76.7456 164.352C76.7746 164.331 76.812 164.303 76.8411 164.281C76.8508 164.274 76.8605 164.267 76.8701 164.26C76.8964 164.242 76.9283 164.219 76.9532 164.203L76.9698 164.19C77.0764 164.114 77.1871 164.037 77.2923 163.959C79.3297 162.485 81.122 160.926 82.6141 159.362C82.7899 159.179 82.9629 158.996 83.1386 158.813C83.4902 158.442 83.7919 158.121 84.0535 157.833C84.1089 157.773 84.1601 157.714 84.2141 157.654C84.3193 157.537 84.4272 157.416 84.5269 157.302C84.8923 156.889 85.2438 156.479 85.5331 156.101C85.5926 156.023 85.6452 155.953 85.7034 155.877C86.1989 155.254 86.7331 154.554 87.3379 153.713C87.3933 153.637 87.4514 153.542 87.5068 153.461C88.2238 152.462 88.8632 151.494 89.4279 150.453C89.511 150.3 89.5746 150.182 89.6521 150.04C89.7532 149.864 89.8625 149.671 89.9788 149.459C90.1393 149.17 90.2985 148.88 90.4521 148.589C90.4715 148.553 90.4867 148.525 90.5075 148.487L90.4701 148.553C90.513 148.472 90.549 148.39 90.5905 148.311C90.6196 148.259 90.6528 148.199 90.6805 148.148C90.7719 147.981 90.9269 147.675 91.1248 147.257C91.2369 147.031 91.3435 146.811 91.4431 146.596C91.5968 146.264 91.7393 145.929 91.8847 145.595C91.9635 145.404 92.0452 145.209 92.131 144.993C92.5047 144.093 92.8466 143.184 93.1566 142.262C93.2853 141.892 93.4016 141.523 93.5193 141.155C93.5926 140.916 93.6798 140.681 93.749 140.441C94.9435 136.443 95.45 132.587 95.5096 128.983C95.5123 128.893 95.5151 128.799 95.5179 128.71C95.5206 128.574 95.5206 128.446 95.5234 128.315C95.5248 128.188 95.5276 128.056 95.5276 127.933C95.5276 127.5 95.5165 127.084 95.4999 126.661Z" fill="#D21830" stroke="black" stroke-width="3" stroke-miterlimit="10" stroke-linecap="round"/>
<path d="M79.5577 108.158C84.9847 116.686 69.2407 126.691 57.8788 124.437C50.0574 122.885 47.0899 116.402 54.6581 111.641C54.8518 111.518 74.5224 100.245 79.5577 108.158Z" fill="#FA9FB1" stroke="black" stroke-width="3" stroke-miterlimit="10" stroke-linecap="round"/>
<path d="M29.6328 111.56C29.6328 111.56 44.8148 109.605 53.8764 102.863" stroke="black" stroke-width="3" stroke-miterlimit="10" stroke-linecap="round"/>
<path d="M41.3971 108.607C38.5724 107.16 34.0096 102.659 24.4492 106.718L40.0934 99.7703C44.0769 99.1913 42.2228 103.614 45.5254 107.088L41.3971 108.607Z" fill="black" stroke="black" stroke-width="3"/>
<path d="M156.59 109.655C160.461 116.329 149.229 124.158 141.124 122.394C135.543 121.18 133.427 116.106 138.826 112.381C138.963 112.285 152.997 103.463 156.59 109.655Z" fill="#FA9FB1" stroke="black" stroke-width="3" stroke-miterlimit="10" stroke-linecap="round"/>
<path d="M131.425 106.408C129.863 107.778 127.723 108.926 125.421 109.737L120.593 110.875L120.051 108.823L117.906 106.941C115.475 104.81 112.489 103.413 109.295 102.912L103.104 101.941C108.536 99.119 117.554 92.1923 123.093 101.724L127.656 106.408L132.408 104.328C132.762 104.173 133.087 104.515 132.867 104.832C132.509 105.349 132.029 105.879 131.425 106.408Z" fill="black"/>
<path d="M112.52 108.823C113.078 109.824 114.377 110.569 116.366 110.874C117.655 111.072 119.101 111.056 120.593 110.875M120.593 110.875L125.421 109.737C127.723 108.926 129.863 107.778 131.425 106.408C132.029 105.879 132.509 105.349 132.867 104.832C133.087 104.515 132.762 104.173 132.408 104.328L127.656 106.408L123.093 101.724C117.554 92.1923 108.536 99.119 103.104 101.941L109.295 102.912C112.489 103.413 115.475 104.81 117.906 106.941L120.051 108.823L120.593 110.875Z" stroke="black" stroke-width="3" stroke-miterlimit="10" stroke-linecap="round"/>
<path d="M27.5037 10.1192L21.3771 16.2848C20.024 17.6466 20.0597 19.856 21.456 21.1734L22.2887 21.9591C46.0672 41.5531 44.6578 84.4235 41.1069 106.152C40.8722 107.588 42.41 108.679 43.6784 107.966L46.5536 106.349C47.2568 105.954 47.8013 105.323 48.0653 104.561C56.88 79.1064 46.6631 47.2521 40.2011 33.9894C40.0903 33.7619 40.0365 33.5223 40.0365 33.2693C40.0365 32.063 41.291 31.2662 42.3829 31.779L46.375 33.6539C92.5418 49.4119 114.377 88.597 120.235 108.204C120.661 109.628 122.161 110.448 123.574 109.988L125.85 109.247C127.137 108.828 127.876 107.467 127.505 106.165C113.725 57.7797 69.0082 32.7881 47.3794 26.698C46.7135 26.5105 46.1335 26.1434 45.6825 25.6188L32.5132 10.2999C31.2155 8.79042 28.9067 8.70711 27.5037 10.1192Z" fill="#77685C" stroke="black" stroke-width="3"/>
</svg>
