<svg width="180" height="180" viewBox="0 0 180 180" fill="none" xmlns="http://www.w3.org/2000/svg">
<path d="M110.868 125.06C109.602 126.001 108.187 126.762 106.64 127.292C98.036 130.251 88.5427 125.065 85.5413 115.764L85.5138 115.664C88.7463 125.185 98.085 130.221 106.64 127.292C108.187 126.759 109.603 125.998 110.868 125.06ZM45.7496 42.8764C45.8343 45.4873 46.283 48.1404 47.1292 50.7587C46.2808 48.1433 45.8328 45.4903 45.7496 42.8764Z" fill="#CBCECF"/>
<path fill-rule="evenodd" clip-rule="evenodd" d="M129.5 31.9974C125.446 32.1292 122.317 35.5993 122.616 39.6441C123.393 50.1342 124.729 68.1918 124.813 69.3976C125.248 75.6357 125.683 81.8731 126.118 88.1113L126.169 88.8367L126.25 90.0019L126.274 90.3541C126.386 91.9496 126.497 93.5445 126.608 95.14C126.618 95.2844 126.63 95.4472 126.642 95.6138C126.656 95.81 126.67 96.0054 126.684 96.203C126.693 96.3244 126.701 96.4414 126.71 96.5487L126.727 96.7827C126.73 96.8271 126.734 96.8693 126.737 96.9137L126.817 97.9656C126.85 98.3935 126.896 98.9627 126.93 99.3906L126.945 99.5682C126.986 100.069 127.022 100.506 127.05 100.824C127.087 101.256 127.138 101.832 127.175 102.264L127.238 102.95C127.244 103.012 127.249 103.074 127.255 103.136L127.307 103.711C127.347 104.147 127.403 104.729 127.444 105.165L127.513 105.876C127.526 106.007 127.539 106.138 127.552 106.27L127.587 106.626C127.631 107.066 127.691 107.653 127.736 108.094L127.89 109.568C128.069 111.271 128.352 113.777 128.563 115.526C128.566 115.551 128.57 115.581 128.573 115.607C128.61 115.921 128.649 116.235 128.687 116.549L128.701 116.671C128.717 116.796 128.732 116.918 128.745 117.029L128.819 117.618C128.837 117.765 128.855 117.911 128.873 118.056L128.932 118.537C128.987 118.97 129.06 119.539 129.117 119.984L129.125 120.05L129.169 120.384C129.207 120.676 129.245 120.97 129.284 121.265L129.323 121.566C129.383 122.023 129.465 122.632 129.526 123.088L129.731 124.586L129.736 124.619C129.737 124.628 129.738 124.639 129.739 124.648C129.759 124.804 129.785 125.024 129.814 125.288C129.86 125.716 129.9 126.161 129.939 126.551C129.945 126.619 129.95 126.688 129.956 126.756C130.048 128.398 130.028 129.874 129.939 131.189L129.906 131.536C129.852 132.117 129.81 132.556 129.773 132.903C129.698 133.454 129.575 134.135 129.485 134.679C129.475 134.742 129.464 134.8 129.45 134.861L129.059 136.571C129.037 136.651 129.017 136.729 128.996 136.81C128.775 137.546 128.501 138.427 128.216 139.244L127.881 140.142C127.836 140.256 127.794 140.367 127.746 140.484C127.701 140.593 127.654 140.698 127.608 140.804C127.452 141.156 127.278 141.528 127.125 141.863C127.058 141.999 126.949 142.22 126.882 142.355L126.233 143.574C126.082 143.841 125.941 144.08 125.806 144.302C125.638 144.574 125.462 144.849 125.3 145.106C125.177 145.287 125.057 145.466 124.934 145.648L124.259 146.584C124.091 146.808 123.912 147.031 123.732 147.256C123.131 147.965 122.404 148.778 121.778 149.437C121.698 149.518 121.623 149.599 121.541 149.68C121.169 150.036 120.687 150.458 120.299 150.806C120.23 150.864 120.164 150.92 120.094 150.978L118.913 151.904C118.818 151.973 118.728 152.038 118.634 152.107C117.869 152.622 116.875 153.238 116.034 153.723C115.848 153.821 115.546 153.979 115.36 154.078L114.94 154.28C112.774 155.296 110.86 155.803 109.531 156.122C109.439 156.145 109.352 156.162 109.258 156.176C108.6 156.275 107.861 156.366 107.192 156.44C106.886 156.467 106.564 156.488 106.223 156.504L105.788 156.516L105.384 156.526C105.024 156.53 104.65 156.526 104.26 156.513L103.596 156.478H103.592C103.283 156.455 102.979 156.435 102.659 156.401L102.832 156.424C102.663 156.408 102.488 156.384 102.315 156.364L101.901 156.305L101.88 156.302L101.01 156.176C100.909 156.159 100.807 156.139 100.705 156.121C100.523 156.085 100.342 156.049 100.17 156.012L100.499 156.084C100.462 156.077 100.427 156.072 100.391 156.065C100.34 156.054 100.294 156.045 100.242 156.034L100.234 156.032C100.149 156.014 100.06 155.992 99.9736 155.972C100.034 155.986 100.102 155.997 100.164 156.011L99.8376 155.94C99.8589 155.944 99.8778 155.949 99.8981 155.954C99.8374 155.94 99.7773 155.927 99.7165 155.913L99.8376 155.94C99.2633 155.806 98.7514 155.669 98.2901 155.538L98.8488 155.702C98.7537 155.677 98.663 155.657 98.5664 155.63C98.5256 155.619 98.484 155.604 98.4424 155.592L98.0976 155.484C98.1578 155.501 98.2277 155.52 98.2901 155.538L97.9624 155.441L97.3554 155.25C96.663 155.014 96.0271 154.768 95.4528 154.525L95.4504 154.524C95.2811 154.452 95.1117 154.379 94.9439 154.304L94.8739 154.272C94.8095 154.244 94.7453 154.215 94.6831 154.187C92.2634 153.064 90.0063 151.58 87.9729 149.776C87.964 149.769 87.9558 149.761 87.9469 149.754C85.6646 147.724 83.6683 145.289 82.0368 142.511C81.9633 142.385 81.889 142.261 81.8169 142.133C81.7248 141.971 81.6356 141.805 81.5457 141.64C81.3957 141.363 81.2471 141.085 81.1022 140.799C81.0631 140.722 81.0249 140.645 80.9865 140.568L80.9573 140.51C80.9001 140.394 80.8466 140.275 80.7902 140.158C80.2701 139.043 79.8712 138.039 79.5629 137.216C79.5324 137.135 79.5012 137.051 79.4715 136.972C79.4039 136.789 79.3377 136.609 79.2783 136.448L76.4537 127.722L73.629 118.996L70.8044 110.269L67.9797 101.543L65.1551 92.8171L62.3304 84.0909L59.5065 75.3685L56.6819 66.6424L53.8572 57.9162L51.0326 49.1901C49.7726 44.7285 48.9635 39.241 52.5185 32.3773C54.1106 29.3031 57.3862 25.3257 63.9493 23.6593C64.0615 23.6312 64.1714 23.6083 64.2858 23.5912C66.3988 23.2744 71.1038 22.8976 76.3749 26.3294C81.9113 29.9345 83.802 35.1022 84.6089 37.3089L84.6405 37.4065C86.6515 43.6188 88.6625 49.8311 90.6727 56.0434L91.4417 58.4196L91.6958 59.205L95.2574 70.2089L95.9966 72.4933L97.1355 76.0118L98.2745 79.5302L98.7826 81.1011C99.6288 83.7149 100.475 86.3295 101.321 88.9433L101.691 90.0855L102.83 93.604L103.969 97.1224L105.108 100.641L105.87 102.996C106.375 104.557 106.881 106.117 107.385 107.678C108.314 110.967 108.04 114.112 106.818 116.632C106.696 116.866 106.56 117.115 106.423 117.357C106.393 117.407 106.367 117.46 106.336 117.51C106.294 117.582 106.254 117.651 106.213 117.718C104.982 119.624 103.128 121.051 100.797 121.739C100.607 121.795 100.412 121.834 100.215 121.853C96.6066 122.207 91.8978 120.5 89.5435 114.471C89.4996 114.36 89.4617 114.243 89.4298 114.128L88.6081 111.168L87.7389 108.036L86.8696 104.905L86.0004 101.774L85.1319 98.6451L84.2634 95.5176L83.3957 92.3922L82.5287 89.2691L81.6624 86.1489L80.7969 83.0316L79.9328 79.9181L79.0695 76.8083L78.2077 73.7029L77.3467 70.602L76.4871 67.5055L75.629 64.4142L74.7724 61.3288L73.9173 58.2493L73.0644 55.1758L72.213 52.1089C72.2137 52.1133 72.2145 52.1185 72.2152 52.1222C72.2078 52.0941 72.2003 52.066 72.1914 52.0408C72.1825 52.0149 72.1714 51.9919 72.1602 51.969C72.158 51.9638 72.1558 51.9586 72.1535 51.9542C72.1521 51.9512 72.1498 51.946 72.1498 51.946C72.1342 51.9149 72.1164 51.8868 72.0971 51.8616C72.0889 51.8513 72.08 51.8439 72.0711 51.8343C72.0644 51.8269 72.0577 51.8194 72.051 51.8128C72.0436 51.8061 72.0376 51.7972 72.0302 51.7906C72.005 51.7691 71.9775 51.7506 71.9477 51.7358L71.9411 51.7336C71.9336 51.7299 71.9255 51.7291 71.918 51.7262C71.892 51.7158 71.8668 51.7047 71.8378 51.6988C71.8281 51.6966 71.8162 51.6988 71.8058 51.6973C71.7865 51.6951 71.7657 51.6943 71.7449 51.6943C71.7271 51.6943 71.7108 51.6899 71.6922 51.6914C71.6625 51.6936 71.6313 51.6973 71.5986 51.704L70.9864 51.8232C70.9582 51.8283 70.9299 51.8357 70.9009 51.8439C70.6706 51.9105 70.392 51.9912 70.1268 52.0682L69.7137 52.1874C69.5354 52.2392 69.2977 52.308 69.1194 52.3591L68.525 52.5308L67.9307 52.7026L67.3363 52.8743L66.742 53.0461L66.1476 53.2178C65.9693 53.2696 65.7613 53.3296 65.5533 53.3895L64.9589 53.5613C64.93 53.5694 64.8936 53.5798 64.8624 53.5894L64.3638 53.7338C64.1855 53.7856 63.9478 53.8544 63.7695 53.9055C63.5912 53.9566 63.3832 54.0173 63.1751 54.0772L62.5808 54.249C62.4025 54.3008 62.1648 54.3696 61.9864 54.4207C61.6298 54.5236 61.1544 54.6613 60.7977 54.7642C60.6194 54.816 60.3817 54.8849 60.2034 54.9359C60.2034 54.9359 59.8536 55.1102 59.8767 55.1226C59.8965 55.1215 59.9169 55.1207 59.9375 55.1202C59.9475 55.1198 59.9576 55.1195 59.9679 55.1195H59.9701C59.9592 55.1197 59.9483 55.1199 59.9375 55.1202C59.9187 55.121 59.9004 55.1222 59.8825 55.1232C59.8797 55.1234 59.8778 55.1232 59.8767 55.1226C59.815 55.1259 59.7575 55.1318 59.7056 55.1417L77.2278 118.25C81.0435 130.039 92.3778 137.002 103.401 134.859L104.531 134.605C104.602 134.59 104.672 134.571 104.741 134.551L105.552 134.309C105.838 134.227 106.116 134.145 106.366 134.066C106.959 133.877 107.729 133.563 108.294 133.302C108.842 133.049 109.573 132.709 110.088 132.394C110.119 132.375 110.156 132.351 110.187 132.332C110.652 132.057 111.176 131.721 111.595 131.462L112.049 131.129C112.319 130.94 112.584 130.745 112.845 130.544L113.011 130.422C113.014 130.42 113.084 130.363 113.201 130.265C113.959 129.655 114.678 128.994 115.353 128.281C115.48 128.148 115.6 128.017 115.71 127.889C116.473 127.044 117.179 126.132 117.828 125.153L117.942 124.991C118.233 124.579 118.555 124.016 118.816 123.547C118.817 123.546 118.817 123.545 118.818 123.543C118.817 123.544 118.817 123.545 118.817 123.545C118.847 123.491 118.88 123.433 118.908 123.382C120.643 120.234 121.469 117.164 121.782 114.389C121.793 114.295 121.803 114.199 121.813 114.102C121.841 113.818 121.866 113.538 121.884 113.261L121.898 113.126L121.901 113.049C121.905 112.998 121.909 112.942 121.913 112.894C121.971 112.25 121.987 111.933 121.955 111.096L121.956 111.031C121.949 110.465 121.889 109.711 121.86 109.145C121.831 108.573 121.696 107.821 121.623 107.254C121.549 106.678 121.375 105.923 121.239 105.359C121.1 104.787 120.865 104.037 120.704 103.47L118.427 96.4333L116.149 89.3964L113.871 82.3595L111.593 75.3226L109.315 68.2857L107.037 61.2488L104.76 54.212L102.482 47.1751L100.204 40.1382L97.926 33.1013C95.1103 24.8497 90.4603 18.9202 83.2931 14.4394C73.9819 8.61879 64.7762 10.0253 61.7509 10.4879C60.4545 10.7396 59.1611 11.0838 57.878 11.5243C57.878 11.5243 56.0415 12.0928 55.4724 12.326C55.4635 12.3297 55.4553 12.3334 55.4464 12.3364C55.1678 12.4504 54.8951 12.5621 54.6462 12.6628C54.5712 12.6932 54.5014 12.725 54.4293 12.7613L52.3877 13.7821C51.7124 14.1589 50.855 14.7118 50.179 15.1323C50.1121 15.1738 50.0504 15.216 49.9865 15.2626L48.1656 16.5995C47.5779 17.071 46.8439 17.741 46.2622 18.254C46.205 18.3043 46.153 18.3539 46.0995 18.4087L44.517 20.0276C44.0215 20.5776 43.4145 21.3431 42.9301 21.9301C42.8833 21.9871 42.841 22.0426 42.7986 22.1026L41.4762 23.9673C41.0765 24.581 40.5995 25.4204 40.2154 26.0681C40.179 26.1296 40.1463 26.1895 40.1136 26.2539L39.0743 28.3252C38.7726 28.9884 38.4279 29.8856 38.1456 30.5785C38.1189 30.6437 38.0958 30.7066 38.0743 30.7732L37.341 33.011C37.1397 33.7105 36.9316 34.6492 36.7533 35.3761C36.737 35.4442 36.7229 35.5094 36.711 35.579L36.3053 37.9419C36.208 38.6673 36.1389 39.6311 36.0684 40.381C36.0617 40.4513 36.0579 40.5187 36.0557 40.5898L36 43.0348C36.0104 43.7773 36.0847 44.7537 36.1256 45.5154C36.1293 45.5872 36.1352 45.6546 36.1441 45.7257L36.4569 48.2114C36.5446 48.7444 36.6828 49.3921 36.812 49.9969C37.0743 50.9748 37.5015 52.5708 37.7637 53.5494L39.127 57.7607L40.5393 62.1238L43.364 70.85L46.1886 79.5761L49.0133 88.3023L51.0252 94.5175L51.8379 97.0277L54.6626 105.754L57.4872 114.48C58.537 117.724 59.5868 120.967 60.6373 124.211L61.7242 127.569L63.1365 131.932L64.5488 136.295L65.9612 140.658C66.1566 141.232 66.3928 141.882 66.6417 142.541L66.6684 142.612C67.0057 143.502 67.3661 144.406 67.6877 145.158C68.0641 146.038 68.6482 147.161 69.1018 148.032L69.1588 148.142C69.5585 148.909 70.2137 150.012 70.9247 151.112C70.9856 151.206 71.0473 151.3 71.109 151.394C71.3839 151.814 71.6617 152.224 71.9381 152.616C72.0116 152.72 72.0852 152.824 72.1602 152.927C72.3675 153.215 72.5718 153.492 72.765 153.739C72.7724 153.748 72.7791 153.757 72.7873 153.766C73.4202 154.6 74.0837 155.407 74.7783 156.188C75.8861 157.464 76.6424 158.205 77.0584 158.581C77.2441 158.748 77.441 158.923 77.6431 159.101C78.5993 159.982 79.6045 160.828 80.6617 161.64C81.0532 161.956 81.4336 162.256 81.7879 162.529C82.5621 163.125 83.681 163.801 84.5093 164.32C84.7783 164.489 85.0844 164.67 85.4001 164.853C85.5457 164.937 85.6906 165.02 85.8362 165.102C85.9402 165.159 86.0413 165.213 86.1453 165.27C88.2077 166.396 90.2723 167.24 92.1556 167.867C92.4209 167.967 92.6809 168.064 92.9268 168.153C93.857 168.49 95.1437 168.802 96.1081 169.027C96.9713 169.229 98.1392 169.417 99.0115 169.577C101.034 169.948 103.065 170.037 104.946 169.987C105.062 169.986 105.178 169.986 105.294 169.983C106.117 169.965 107.152 169.901 108.057 169.821C108.079 169.819 108.101 169.816 108.123 169.815C108.32 169.797 108.52 169.779 108.699 169.76C109.279 169.699 109.988 169.577 110.626 169.483C110.933 169.437 111.239 169.389 111.543 169.33L112.273 169.188L112.28 169.186C112.908 169.046 113.75 168.886 114.369 168.718C115.213 168.488 116.285 168.176 117.179 167.879L117.302 167.842C117.311 167.838 117.323 167.834 117.333 167.831C117.356 167.823 117.38 167.814 117.403 167.805L117.431 167.795C117.485 167.776 117.546 167.757 117.598 167.739C117.824 167.66 118.063 167.57 118.306 167.476C118.858 167.271 119.432 167.04 120.021 166.787L120.027 166.784C120.042 166.778 120.057 166.772 120.074 166.766C120.09 166.759 120.109 166.752 120.126 166.745L120.175 166.721L120.203 166.708C120.924 166.393 121.67 166.037 122.438 165.638C122.472 165.621 122.508 165.604 122.541 165.589L122.552 165.584C123.35 165.198 124.381 164.609 125.115 164.113L125.116 164.112C125.215 164.045 125.326 163.972 125.433 163.9C125.62 163.78 125.809 163.652 125.998 163.525C126.461 163.219 126.936 162.901 127.322 162.617C128.022 162.103 128.93 161.383 129.596 160.823L129.599 160.82L129.6 160.819C130.233 160.287 131.048 159.567 131.634 158.96C131.688 158.907 131.736 158.852 131.79 158.798C131.973 158.613 132.162 158.417 132.357 158.211C132.733 157.824 133.102 157.436 133.45 157.046L133.468 157.027C133.493 157 133.519 156.972 133.543 156.948L133.707 156.749C133.996 156.419 134.294 156.088 134.563 155.758C134.758 155.523 134.941 155.292 135.113 155.066C138.688 150.483 140.412 146.261 140.814 145.195C140.825 145.169 140.833 145.145 140.843 145.118C140.935 144.889 141.029 144.642 141.125 144.385C141.137 144.353 141.148 144.321 141.16 144.289C141.248 144.051 141.334 143.813 141.421 143.574L141.425 143.565C141.503 143.354 141.57 143.169 141.636 142.984C141.668 142.896 141.703 142.812 141.734 142.724C141.706 142.8 141.675 142.881 141.645 142.958C141.661 142.913 141.681 142.859 141.697 142.815C141.723 142.744 141.751 142.665 141.776 142.598L141.791 142.546C142.083 141.704 142.285 141.019 142.571 139.932L142.571 139.93L142.572 139.926C142.576 139.913 142.579 139.901 142.582 139.888C142.595 139.84 142.604 139.797 142.616 139.749L142.864 138.747L142.885 138.643C142.931 138.444 142.971 138.255 143.011 138.066L143.03 137.979C143.048 137.891 143.067 137.804 143.085 137.718C143.121 137.541 143.163 137.354 143.197 137.184C143.2 137.172 143.203 137.157 143.206 137.144L143.212 137.106C143.282 136.742 143.342 136.402 143.397 136.075C143.403 136.045 143.409 136.009 143.415 135.98L143.405 136.027C143.513 135.383 143.595 134.811 143.652 134.348V134.345L143.653 134.341L143.654 134.336C143.654 134.332 143.655 134.329 143.655 134.326C143.659 134.294 143.663 134.255 143.667 134.223C143.683 134.095 143.696 133.962 143.712 133.832C143.738 133.598 143.764 133.36 143.79 133.106C143.808 132.924 143.824 132.741 143.84 132.556C143.849 132.444 143.857 132.322 143.866 132.206L143.886 132.002L143.892 131.869C143.896 131.802 143.902 131.741 143.906 131.673C143.913 131.565 143.92 131.458 143.927 131.348C143.951 130.951 143.969 130.534 143.981 130.1L143.984 130.021C143.99 129.796 143.989 129.552 143.991 129.318L143.996 129.191C143.994 129.225 143.993 129.259 143.992 129.293C143.994 129.074 144 128.865 143.999 128.638C143.999 128.617 144 128.597 144 128.576V128.572V128.568C144 128.483 143.999 128.402 143.999 128.32L143.999 128.318C143.997 128.173 143.998 128.034 143.995 127.886C143.989 127.384 143.975 126.878 143.935 126.262C143.757 116.715 141.843 107.345 140.859 97.8797C140.75 96.7368 140.39 91.8947 140.324 90.9494L136.85 38.6545C136.595 34.817 133.343 31.8724 129.5 31.9974V31.9974ZM110.868 125.06C109.602 126.001 108.187 126.762 106.64 127.292C108.187 126.759 109.603 125.998 110.868 125.06ZM110.868 125.06C109.602 126.001 108.187 126.762 106.64 127.292C98.036 130.251 88.5427 125.065 85.5413 115.764L85.5138 115.664C88.7463 125.185 98.085 130.221 106.64 127.292C108.187 126.759 109.603 125.998 110.868 125.06ZM45.7496 42.8764C45.8343 45.4873 46.283 48.1404 47.1292 50.7587C46.2808 48.1433 45.8328 45.4903 45.7496 42.8764ZM45.7496 42.8764C45.8343 45.4873 46.283 48.1404 47.1292 50.7587C46.2808 48.1433 45.8328 45.4903 45.7496 42.8764Z" fill="#CBCECF"/>
<path d="M106.64 127.292C108.187 126.762 109.602 126.001 110.868 125.06C109.603 125.998 108.187 126.759 106.64 127.292ZM106.64 127.292C98.036 130.251 88.5427 125.065 85.5413 115.764L85.5138 115.664C88.7463 125.185 98.085 130.221 106.64 127.292ZM133.106 70.9758C134.56 89.1106 136.275 109.656 137.297 119.068M124.813 69.3976C124.729 68.1918 123.393 50.1342 122.616 39.6441C122.317 35.5993 125.446 32.1292 129.5 31.9974V31.9974C133.343 31.8724 136.595 34.817 136.85 38.6545L140.324 90.9494C140.39 91.8947 140.75 96.7368 140.859 97.8797C141.843 107.345 143.757 116.715 143.935 126.262C143.975 126.878 143.989 127.384 143.995 127.886C143.998 128.034 143.997 128.173 143.999 128.318L143.999 128.32C143.999 128.402 144 128.483 144 128.568V128.572V128.576C144 128.597 143.999 128.617 143.999 128.638C144 128.865 143.994 129.074 143.992 129.293C143.993 129.259 143.994 129.225 143.996 129.191M124.813 69.3976C124.926 71.0151 124.7 67.7801 124.813 69.3976ZM124.813 69.3976C124.943 71.2616 124.683 67.5336 124.813 69.3976ZM124.813 69.3976C125.248 75.6357 125.683 81.8731 126.118 88.1113L126.169 88.8367L126.25 90.0019M126.25 90.0019L126.274 90.3541M126.25 90.0019C126.258 90.1193 126.266 90.2367 126.274 90.3541M128.701 116.671C128.717 116.796 128.732 116.918 128.745 117.029L128.819 117.618C128.837 117.765 128.855 117.911 128.873 118.056L128.932 118.537C128.987 118.97 129.06 119.539 129.117 119.984M128.701 116.671L128.687 116.549M128.701 116.671C128.697 116.631 128.692 116.59 128.687 116.549M129.125 120.05L129.169 120.384C129.207 120.676 129.245 120.97 129.284 121.265L129.323 121.566C129.383 122.023 129.465 122.632 129.526 123.088L129.731 124.586M129.125 120.05L129.117 119.984M129.125 120.05C129.122 120.028 129.119 120.006 129.117 119.984M129.731 124.586C129.733 124.597 129.734 124.608 129.736 124.619M129.731 124.586L129.736 124.619M129.736 124.619C129.737 124.628 129.738 124.639 129.739 124.648C129.759 124.804 129.785 125.024 129.814 125.288C129.86 125.716 129.9 126.161 129.939 126.551C129.945 126.619 129.95 126.688 129.956 126.756C130.048 128.398 130.028 129.874 129.939 131.189L129.906 131.536C129.852 132.117 129.81 132.556 129.773 132.903C129.698 133.454 129.575 134.135 129.485 134.679C129.475 134.742 129.464 134.8 129.45 134.861L129.059 136.571C129.037 136.651 129.017 136.729 128.996 136.81C128.775 137.546 128.501 138.427 128.216 139.244L127.881 140.142C127.836 140.256 127.794 140.367 127.746 140.484C127.701 140.593 127.654 140.698 127.608 140.804C127.452 141.156 127.278 141.528 127.125 141.863C127.058 141.999 126.949 142.22 126.882 142.355L126.233 143.574C126.082 143.841 125.941 144.08 125.806 144.302C125.638 144.574 125.462 144.849 125.3 145.106C125.177 145.287 125.057 145.466 124.934 145.648L124.259 146.584C124.091 146.808 123.912 147.031 123.732 147.256C123.131 147.965 122.404 148.778 121.778 149.437C121.698 149.518 121.623 149.599 121.541 149.68C121.169 150.036 120.687 150.458 120.299 150.806C120.23 150.864 120.164 150.92 120.094 150.978L118.913 151.904C118.818 151.973 118.728 152.038 118.634 152.107C117.869 152.622 116.875 153.238 116.034 153.723C115.848 153.821 115.546 153.979 115.36 154.078L114.94 154.28C112.774 155.296 110.86 155.803 109.531 156.122C109.439 156.145 109.352 156.162 109.258 156.176C108.6 156.275 107.861 156.366 107.192 156.44C106.886 156.467 106.564 156.488 106.223 156.504L105.788 156.516L105.384 156.526C105.024 156.53 104.65 156.526 104.26 156.513L103.596 156.478H103.592C103.283 156.455 102.979 156.435 102.659 156.401M102.659 156.401L102.832 156.424C102.663 156.408 102.488 156.384 102.315 156.364L101.901 156.305M102.659 156.401C102.412 156.376 102.154 156.337 101.901 156.305M102.659 156.401L101.88 156.302M101.901 156.305L101.88 156.302M101.88 156.302L101.01 156.176C100.909 156.159 100.807 156.139 100.705 156.121C100.523 156.085 100.342 156.049 100.17 156.012M100.17 156.012L100.499 156.084C100.462 156.077 100.427 156.072 100.391 156.065C100.34 156.054 100.294 156.045 100.242 156.034L100.234 156.032C100.149 156.014 100.06 155.992 99.9736 155.972C100.034 155.986 100.102 155.997 100.164 156.011M100.17 156.012C100.168 156.012 100.166 156.011 100.164 156.011M100.17 156.012L100.164 156.011M99.8376 155.94L99.7165 155.913C99.7773 155.927 99.8374 155.94 99.8981 155.954M99.8376 155.94C99.2633 155.806 98.7514 155.669 98.2901 155.538M99.8376 155.94L100.164 156.011M99.8376 155.94C99.8589 155.944 99.8778 155.949 99.8981 155.954M99.923 155.96C99.9147 155.958 99.9064 155.956 99.8981 155.954M98.2901 155.538L98.8488 155.702C98.7537 155.677 98.663 155.657 98.5664 155.63C98.5256 155.619 98.484 155.604 98.4424 155.592L98.0976 155.484C98.1578 155.501 98.2277 155.52 98.2901 155.538ZM98.2901 155.538L97.9624 155.441L97.3554 155.25C96.663 155.014 96.0271 154.768 95.4528 154.525L95.4504 154.524C95.2811 154.452 95.1117 154.379 94.9439 154.304M94.9439 154.304L94.8739 154.272M94.9439 154.304C94.9206 154.293 94.8972 154.283 94.8739 154.272M80.9573 140.51C80.9001 140.394 80.8466 140.275 80.7902 140.158C80.2701 139.043 79.8712 138.039 79.5629 137.216C79.5324 137.135 79.5012 137.051 79.4715 136.972C79.4039 136.789 79.3377 136.609 79.2783 136.448L76.4537 127.722L73.629 118.996L70.8044 110.269L67.9797 101.543L65.1551 92.8171L62.3304 84.0909L59.5065 75.3685L56.6819 66.6424L53.8572 57.9162L51.0326 49.1901C49.7726 44.7285 48.9635 39.241 52.5185 32.3773C54.1106 29.3031 57.3862 25.3257 63.9493 23.6593C64.0615 23.6312 64.1714 23.6083 64.2858 23.5912C66.3988 23.2744 71.1038 22.8976 76.3749 26.3294C81.9113 29.9345 83.802 35.1022 84.6089 37.3089M80.9573 140.51L80.9865 140.568M80.9573 140.51C80.9671 140.529 80.9768 140.549 80.9865 140.568M84.6089 37.3089L84.6405 37.4065M84.6089 37.3089C84.6194 37.3415 84.6299 37.374 84.6405 37.4065M91.6958 59.205L91.4417 58.4196L90.6727 56.0434C88.6625 49.8311 86.6515 43.6188 84.6405 37.4065M91.6958 59.205C92.883 62.873 94.0702 66.5409 95.2574 70.2089M91.6958 59.205L95.2574 70.2089M95.2574 70.2089L95.9966 72.4933L97.1355 76.0118L98.2745 79.5302L98.7826 81.1011C99.6288 83.7149 100.475 86.3295 101.321 88.9433L101.691 90.0855L102.83 93.604L103.969 97.1224L105.108 100.641L105.87 102.996C106.375 104.557 106.881 106.117 107.385 107.678C108.314 110.967 108.04 114.112 106.818 116.632C106.696 116.866 106.56 117.115 106.423 117.357C106.393 117.407 106.367 117.46 106.336 117.51C106.294 117.582 106.254 117.651 106.213 117.718C104.982 119.624 103.128 121.051 100.797 121.739C100.607 121.795 100.412 121.834 100.215 121.853C96.6066 122.207 91.8978 120.5 89.5435 114.471C89.4996 114.36 89.4617 114.243 89.4298 114.128L88.6081 111.168L87.7389 108.036L86.8696 104.905L86.0004 101.774L85.1319 98.6451L84.2634 95.5176L83.3957 92.3922L82.5287 89.2691L81.6624 86.1489L80.7969 83.0316L79.9328 79.9181L79.0695 76.8083L78.2077 73.7029L77.3467 70.602L76.4871 67.5055L75.629 64.4142L74.7724 61.3288L73.9173 58.2493L73.0644 55.1758L72.213 52.1089C72.2137 52.1133 72.2145 52.1185 72.2152 52.1222C72.2078 52.0941 72.2003 52.066 72.1914 52.0408C72.1825 52.0149 72.1714 51.9919 72.1602 51.969C72.158 51.9638 72.1558 51.9586 72.1535 51.9542C72.1521 51.9512 72.1498 51.946 72.1498 51.946C72.1342 51.9149 72.1164 51.8868 72.0971 51.8616C72.0889 51.8513 72.08 51.8439 72.0711 51.8343C72.0644 51.8269 72.0577 51.8194 72.051 51.8128C72.0436 51.8061 72.0376 51.7972 72.0302 51.7906C72.005 51.7691 71.9775 51.7506 71.9477 51.7358L71.9411 51.7336C71.9336 51.7299 71.9255 51.7291 71.918 51.7262C71.892 51.7158 71.8668 51.7047 71.8378 51.6988C71.8281 51.6966 71.8162 51.6988 71.8058 51.6973C71.7865 51.6951 71.7657 51.6943 71.7449 51.6943C71.7271 51.6943 71.7108 51.6899 71.6922 51.6914C71.6625 51.6936 71.6313 51.6973 71.5986 51.704L70.9864 51.8232C70.9582 51.8283 70.9299 51.8357 70.9009 51.8439C70.6706 51.9105 70.392 51.9912 70.1268 52.0682L69.7137 52.1874C69.5354 52.2392 69.2977 52.308 69.1194 52.3591L68.525 52.5308L67.9307 52.7026L67.3363 52.8743L66.742 53.0461L66.1476 53.2178C65.9693 53.2696 65.7613 53.3296 65.5533 53.3895L64.9589 53.5613C64.93 53.5694 64.8936 53.5798 64.8624 53.5894L64.3638 53.7338C64.1855 53.7856 63.9478 53.8544 63.7695 53.9055C63.5912 53.9566 63.3832 54.0173 63.1751 54.0772L62.5808 54.249C62.4025 54.3008 62.1648 54.3696 61.9864 54.4207C61.6298 54.5236 61.1544 54.6613 60.7977 54.7642C60.6194 54.816 60.3817 54.8849 60.2034 54.9359C60.2034 54.9359 59.8536 55.1102 59.8767 55.1226M118.822 123.538C118.821 123.539 118.819 123.542 118.818 123.543M118.817 123.545C118.817 123.545 118.817 123.544 118.818 123.543M118.817 123.545C118.847 123.491 118.88 123.433 118.908 123.382M118.817 123.545L118.818 123.543M118.908 123.382C120.643 120.234 121.469 117.164 121.782 114.389C121.793 114.295 121.803 114.199 121.813 114.102C121.841 113.818 121.866 113.538 121.884 113.261L121.898 113.126L121.901 113.049C121.905 112.998 121.909 112.942 121.913 112.894C121.971 112.25 121.987 111.933 121.955 111.096L121.956 111.031C121.949 110.465 121.889 109.711 121.86 109.145C121.831 108.573 121.696 107.821 121.623 107.254C121.549 106.678 121.375 105.923 121.239 105.359C121.1 104.787 120.865 104.037 120.704 103.47L118.427 96.4333L116.149 89.3964L113.871 82.3595L111.593 75.3226L109.315 68.2857L107.037 61.2488L104.76 54.212L102.482 47.1751L100.204 40.1382L97.926 33.1013C95.1103 24.8497 90.4603 18.9202 83.2931 14.4394C73.9819 8.61879 64.7762 10.0253 61.7509 10.4879C60.4545 10.7396 59.1611 11.0838 57.878 11.5243C57.878 11.5243 56.0415 12.0928 55.4724 12.326C55.4635 12.3297 55.4553 12.3334 55.4464 12.3364C55.1678 12.4504 54.8951 12.5621 54.6462 12.6628C54.5712 12.6932 54.5014 12.725 54.4293 12.7613L52.3877 13.7821C51.7124 14.1589 50.855 14.7118 50.179 15.1323C50.1121 15.1738 50.0504 15.216 49.9865 15.2626L48.1656 16.5995C47.5779 17.071 46.8439 17.741 46.2622 18.254C46.205 18.3043 46.153 18.3539 46.0995 18.4087L44.517 20.0276C44.0215 20.5776 43.4145 21.3431 42.9301 21.9301C42.8833 21.9871 42.841 22.0426 42.7986 22.1026L41.4762 23.9673C41.0765 24.581 40.5995 25.4204 40.2154 26.0681C40.179 26.1296 40.1463 26.1895 40.1136 26.2539L39.0743 28.3252C38.7726 28.9884 38.4279 29.8856 38.1456 30.5785C38.1189 30.6437 38.0958 30.7066 38.0743 30.7732L37.341 33.011C37.1397 33.7105 36.9316 34.6492 36.7533 35.3761C36.737 35.4442 36.7229 35.5094 36.711 35.579L36.3053 37.9419C36.208 38.6673 36.1389 39.6311 36.0684 40.381C36.0617 40.4513 36.0579 40.5187 36.0557 40.5898L36 43.0348C36.0104 43.7773 36.0847 44.7537 36.1256 45.5154C36.1293 45.5872 36.1352 45.6546 36.1441 45.7257L36.4569 48.2114C36.5446 48.7444 36.6828 49.3921 36.812 49.9969C37.0743 50.9748 37.5015 52.5708 37.7637 53.5494L39.127 57.7607L40.5393 62.1238L43.364 70.85L46.1886 79.5761L49.0133 88.3023L51.0252 94.5175L51.8379 97.0277L54.6626 105.754L57.4872 114.48C58.537 117.724 59.5868 120.967 60.6373 124.211L61.7242 127.569L63.1365 131.932L64.5488 136.295L65.9612 140.658C66.1566 141.232 66.3928 141.882 66.6417 142.541M118.908 123.382C118.88 123.432 118.848 123.49 118.818 123.543M66.6417 142.541C66.6506 142.565 66.6595 142.588 66.6684 142.612M66.6417 142.541L66.6684 142.612M66.6684 142.612C67.0057 143.502 67.3661 144.406 67.6877 145.158C68.0641 146.038 68.6482 147.161 69.1018 148.032M69.1588 148.142C69.5585 148.909 70.2137 150.012 70.9247 151.112C70.9856 151.206 71.0473 151.3 71.109 151.394C71.3839 151.814 71.6617 152.224 71.9381 152.616C72.0116 152.72 72.0852 152.824 72.1602 152.927C72.3675 153.215 72.5718 153.492 72.765 153.739C72.7724 153.748 72.7791 153.757 72.7873 153.766C73.4202 154.6 74.0837 155.407 74.7783 156.188C75.8861 157.464 76.6424 158.205 77.0584 158.581C77.2441 158.748 77.441 158.923 77.6431 159.101C78.5993 159.982 79.6045 160.828 80.6617 161.64C81.0532 161.956 81.4336 162.256 81.7879 162.529C82.5621 163.125 83.681 163.801 84.5093 164.32C84.7783 164.489 85.0844 164.67 85.4001 164.853C85.5457 164.937 85.6906 165.02 85.8362 165.102C85.9402 165.159 86.0413 165.213 86.1453 165.27C88.2077 166.396 90.2723 167.24 92.1556 167.867C92.4209 167.967 92.6809 168.064 92.9268 168.153C93.857 168.49 95.1437 168.802 96.1081 169.027C96.9713 169.229 98.1392 169.417 99.0115 169.577C101.034 169.948 103.065 170.037 104.946 169.987C105.062 169.986 105.178 169.986 105.294 169.983C106.117 169.965 107.152 169.901 108.057 169.821C108.079 169.819 108.101 169.816 108.123 169.815C108.32 169.797 108.52 169.779 108.699 169.76C109.279 169.699 109.988 169.577 110.626 169.483C110.933 169.437 111.239 169.389 111.543 169.33L112.273 169.188L112.28 169.186C112.908 169.046 113.75 168.886 114.369 168.718C115.213 168.488 116.285 168.176 117.179 167.879L117.302 167.842C117.311 167.838 117.323 167.834 117.333 167.831C117.356 167.823 117.38 167.814 117.403 167.805M69.1588 148.142L69.1018 148.032M69.1588 148.142C69.14 148.106 69.121 148.069 69.1018 148.032M117.431 167.795C117.485 167.776 117.546 167.757 117.598 167.739C117.824 167.66 118.063 167.57 118.306 167.476C118.858 167.271 119.432 167.04 120.021 166.787M117.431 167.795L117.403 167.805M117.431 167.795C117.422 167.798 117.412 167.802 117.403 167.805M120.021 166.787L120.027 166.784M120.021 166.787C120.023 166.786 120.025 166.785 120.027 166.784M133.45 157.046C133.102 157.436 132.733 157.824 132.357 158.211C132.162 158.417 131.973 158.613 131.79 158.798C131.736 158.852 131.688 158.907 131.634 158.96C131.048 159.567 130.233 160.287 129.6 160.819L129.599 160.82L129.596 160.823C128.93 161.383 128.022 162.103 127.322 162.617C126.936 162.901 126.461 163.219 125.998 163.525C125.809 163.652 125.62 163.78 125.433 163.9C125.326 163.972 125.215 164.045 125.116 164.112L125.115 164.113C124.381 164.609 123.35 165.198 122.552 165.584L122.541 165.589C122.508 165.604 122.472 165.621 122.438 165.638C121.67 166.037 120.924 166.393 120.203 166.708L120.175 166.721L120.126 166.745C120.109 166.752 120.09 166.759 120.074 166.766C120.057 166.772 120.042 166.778 120.027 166.784M133.45 157.046L133.468 157.027M133.45 157.046C133.456 157.04 133.462 157.034 133.468 157.027M141.421 143.574C141.334 143.813 141.248 144.051 141.16 144.289C141.148 144.321 141.137 144.353 141.125 144.385C141.029 144.642 140.935 144.889 140.843 145.118C140.833 145.145 140.825 145.169 140.814 145.195C140.412 146.261 138.688 150.483 135.113 155.066C134.941 155.292 134.758 155.523 134.563 155.758C134.294 156.088 133.996 156.419 133.707 156.749L133.543 156.948C133.519 156.972 133.493 157 133.468 157.027M141.421 143.574C141.421 143.574 141.424 143.568 141.425 143.565M141.421 143.574L141.425 143.565M141.425 143.565C141.503 143.354 141.57 143.169 141.636 142.984C141.668 142.896 141.703 142.812 141.734 142.724C141.706 142.8 141.675 142.881 141.645 142.958C141.661 142.913 141.681 142.859 141.697 142.815C141.723 142.744 141.751 142.665 141.776 142.598L141.791 142.546C142.083 141.704 142.285 141.019 142.571 139.932L142.571 139.93L142.572 139.926C142.576 139.913 142.579 139.901 142.582 139.888C142.595 139.84 142.604 139.797 142.616 139.749L142.864 138.747L142.885 138.643C142.931 138.444 142.971 138.255 143.011 138.066M143.03 137.979C143.048 137.891 143.067 137.804 143.085 137.718C143.121 137.541 143.163 137.354 143.197 137.184C143.2 137.172 143.203 137.157 143.206 137.144L143.212 137.106C143.282 136.742 143.342 136.402 143.397 136.075C143.403 136.045 143.409 136.009 143.415 135.98L143.405 136.027C143.513 135.383 143.595 134.811 143.652 134.348V134.345L143.653 134.341M143.03 137.979L143.011 138.066M143.03 137.979C143.024 138.008 143.017 138.037 143.011 138.066M143.653 134.341L143.654 134.336M143.653 134.341C143.653 134.339 143.654 134.338 143.654 134.336M143.981 130.1C143.969 130.534 143.951 130.951 143.927 131.348C143.92 131.458 143.913 131.565 143.906 131.673C143.902 131.741 143.896 131.802 143.892 131.869L143.886 132.002L143.866 132.206C143.857 132.322 143.849 132.444 143.84 132.556C143.824 132.741 143.808 132.924 143.79 133.106C143.764 133.36 143.738 133.598 143.712 133.832C143.696 133.962 143.683 134.095 143.667 134.223C143.663 134.255 143.659 134.294 143.655 134.326C143.655 134.329 143.654 134.332 143.654 134.336M143.981 130.1C143.982 130.073 143.983 130.048 143.984 130.021M143.981 130.1L143.984 130.021M143.984 130.021C143.99 129.796 143.989 129.552 143.991 129.318L143.996 129.191M126.274 90.3541C126.386 91.9496 126.497 93.5445 126.608 95.14C126.618 95.2844 126.63 95.4472 126.642 95.6138C126.656 95.81 126.67 96.0054 126.684 96.203C126.693 96.3244 126.701 96.4414 126.71 96.5487L126.727 96.7827C126.73 96.8271 126.734 96.8693 126.737 96.9137L126.817 97.9656C126.85 98.3935 126.896 98.9627 126.93 99.3906L126.945 99.5682C126.986 100.069 127.022 100.506 127.05 100.824C127.087 101.256 127.138 101.832 127.175 102.264L127.238 102.95C127.244 103.012 127.249 103.074 127.255 103.136L127.307 103.711C127.347 104.147 127.403 104.729 127.444 105.165L127.513 105.876C127.526 106.007 127.539 106.138 127.552 106.27L127.587 106.626C127.631 107.066 127.691 107.653 127.736 108.094L127.89 109.568C128.069 111.271 128.352 113.777 128.563 115.526C128.566 115.551 128.57 115.581 128.573 115.607C128.61 115.921 128.649 116.235 128.687 116.549M94.8739 154.272C94.8095 154.244 94.7453 154.215 94.6831 154.187C92.2634 153.064 90.0063 151.58 87.9729 149.776C87.964 149.769 87.9558 149.761 87.9469 149.754C85.6646 147.724 83.6683 145.289 82.0368 142.511C81.9633 142.385 81.889 142.261 81.8169 142.133C81.7248 141.971 81.6356 141.805 81.5457 141.64C81.3957 141.363 81.2471 141.085 81.1022 140.799C81.0631 140.722 81.0249 140.645 80.9865 140.568M59.8767 55.1226C59.8965 55.1215 59.9169 55.1207 59.9375 55.1202M59.8767 55.1226C59.8778 55.1232 59.8797 55.1234 59.8825 55.1232C59.9004 55.1222 59.9187 55.121 59.9375 55.1202M59.8767 55.1226C59.815 55.1259 59.7575 55.1318 59.7056 55.1417L77.2278 118.25C81.0435 130.039 92.3778 137.002 103.401 134.859L104.531 134.605C104.602 134.59 104.672 134.571 104.741 134.551L105.552 134.309C105.838 134.227 106.116 134.145 106.366 134.066C106.959 133.877 107.729 133.563 108.294 133.302C108.842 133.049 109.573 132.709 110.088 132.394C110.119 132.375 110.156 132.351 110.187 132.332C110.652 132.057 111.176 131.721 111.595 131.462L112.049 131.129C112.319 130.94 112.584 130.745 112.845 130.544L113.011 130.422C113.014 130.42 113.084 130.363 113.201 130.265C113.959 129.655 114.678 128.994 115.353 128.281C115.48 128.148 115.6 128.017 115.71 127.889C116.473 127.044 117.179 126.132 117.828 125.153L117.942 124.991C118.233 124.579 118.555 124.016 118.816 123.547C118.817 123.546 118.817 123.545 118.818 123.543M59.9375 55.1202C59.9475 55.1198 59.9576 55.1195 59.9679 55.1195H59.9701C59.9592 55.1197 59.9483 55.1199 59.9375 55.1202ZM143.996 129.191C143.997 129.165 143.999 129.138 143.999 129.112L143.996 129.191ZM45.7496 42.8764C45.8343 45.4873 46.283 48.1404 47.1292 50.7587C46.2808 48.1433 45.8328 45.4903 45.7496 42.8764Z" stroke="black" stroke-width="3.00448" stroke-miterlimit="10" stroke-linecap="round" stroke-linejoin="round"/>
<path d="M136.681 39.1406C136.681 41.0254 135.894 42.727 134.63 43.9365C133.432 45.0825 131.806 45.7868 130.016 45.7868" stroke="black" stroke-width="3.00448" stroke-linecap="round"/>
</svg>
