<svg width="640" height="88" viewBox="0 0 640 88" fill="none" xmlns="http://www.w3.org/2000/svg">
<g clip-path="url(#clip0_399_8871)">
<path d="M42.05 89H30.98V10.895H1.706V1.055H71.324V10.895H42.05V89ZM106.668 24.548C118.107 24.548 127.701 30.821 127.701 45.212V89H117.861V47.672C117.861 39.554 114.048 33.158 104.208 33.158C93.1382 33.158 85.7582 40.169 85.7582 49.886V89H75.9182V1.055H85.7582V33.773H86.0042C89.3252 29.345 95.9672 24.548 106.668 24.548ZM162.673 82.112C175.219 82.112 179.893 73.994 181 69.689H190.84C187.642 81.374 178.663 90.722 163.042 90.722C143.977 90.722 132.415 77.315 132.415 57.635C132.415 36.725 144.223 24.548 162.55 24.548C182.23 24.548 191.824 37.955 191.824 60.218H142.255C142.255 71.534 149.02 82.112 162.673 82.112ZM162.55 33.158C150.742 33.158 142.255 41.522 142.255 51.608H181.984C181.984 41.522 174.358 33.158 162.55 33.158ZM242.795 1.055V9.665C234.431 9.05 230.864 10.28 230.864 17.414V26.27H242.795V34.88H230.864V89H221.024V34.88H212.291V26.27H221.024V16.43C221.024 3.638 227.42 0.316998 235.784 0.316998C237.998 0.316998 240.581 0.562995 242.795 1.055ZM253.615 14.093C250.909 14.093 247.465 12.002 247.465 8.189C247.465 4.376 250.909 2.28499 253.615 2.28499C256.444 2.28499 259.765 4.376 259.765 8.189C259.765 12.002 256.444 14.093 253.615 14.093ZM248.695 89V26.27H258.535V89H248.695ZM299.12 24.548C310.559 24.548 320.153 30.821 320.153 45.212V89H310.313V47.672C310.313 39.554 306.5 33.158 296.66 33.158C285.59 33.158 278.21 40.169 278.21 49.886V89H268.37V26.27H278.21V33.773H278.456C281.777 29.345 288.419 24.548 299.12 24.548ZM334.583 14.093C331.877 14.093 328.433 12.002 328.433 8.189C328.433 4.376 331.877 2.28499 334.583 2.28499C337.412 2.28499 340.733 4.376 340.733 8.189C340.733 12.002 337.412 14.093 334.583 14.093ZM329.663 89V26.27H339.503V89H329.663ZM374.8 51.731C385.993 54.437 398.662 56.282 398.662 71.78C398.662 83.219 388.207 90.722 373.939 90.722C354.751 90.722 345.895 81.62 345.28 68.09H355.12C355.735 75.101 358.195 82.112 373.939 82.112C384.64 82.112 388.822 76.577 388.822 72.395C388.822 63.293 380.581 62.801 371.602 60.587C362.008 58.25 347.74 57.143 347.74 42.383C347.74 32.543 356.473 24.548 371.233 24.548C386.854 24.548 395.218 33.404 396.202 44.228H386.362C385.378 39.431 383.041 33.158 371.233 33.158C362.377 33.158 357.58 36.725 357.58 41.645C357.58 49.025 366.067 49.64 374.8 51.731ZM434.026 24.548C445.465 24.548 455.059 30.821 455.059 45.212V89H445.219V47.672C445.219 39.554 441.406 33.158 431.566 33.158C420.496 33.158 413.116 40.169 413.116 49.886V89H403.276V1.055H413.116V33.773H413.362C416.683 29.345 423.325 24.548 434.026 24.548ZM483.412 89V1.055H493.252V89H483.412ZM507.216 14.093C504.51 14.093 501.066 12.002 501.066 8.189C501.066 4.376 504.51 2.28499 507.216 2.28499C510.045 2.28499 513.366 4.376 513.366 8.189C513.366 12.002 510.045 14.093 507.216 14.093ZM502.296 89V26.27H512.136V89H502.296ZM552.721 24.548C564.16 24.548 573.754 30.821 573.754 45.212V89H563.914V47.672C563.914 39.554 560.101 33.158 550.261 33.158C539.191 33.158 531.811 40.169 531.811 49.886V89H521.971V26.27H531.811V33.773H532.057C535.378 29.345 542.02 24.548 552.721 24.548ZM608.725 82.112C621.271 82.112 625.945 73.994 627.052 69.689H636.892C633.694 81.374 624.715 90.722 609.094 90.722C590.029 90.722 578.467 77.315 578.467 57.635C578.467 36.725 590.275 24.548 608.602 24.548C628.282 24.548 637.876 37.955 637.876 60.218H588.307C588.307 71.534 595.072 82.112 608.725 82.112ZM608.602 33.158C596.794 33.158 588.307 41.522 588.307 51.608H628.036C628.036 41.522 620.41 33.158 608.602 33.158Z" fill="url(#paint0_linear_399_8871)"/>
</g>
<defs>
<linearGradient id="paint0_linear_399_8871" x1="320" y1="-20" x2="320" y2="89" gradientUnits="userSpaceOnUse">
<stop stop-color="#333333"/>
<stop offset="1" stop-color="#080808"/>
</linearGradient>
<clipPath id="clip0_399_8871">
<rect width="640" height="88" fill="white"/>
</clipPath>
</defs>
</svg>
