<svg width="96" height="96" viewBox="0 0 96 96" fill="none" xmlns="http://www.w3.org/2000/svg">
<g clip-path="url(#clip0_3_90)">
<rect width="96" height="96" fill="black"/>
<path d="M31.7777 75H23L42.7231 19H52.2769L72 75H63.2223L47.7275 29.1719H47.2993L31.7777 75ZM33.2496 53.0703H61.7236V60.1797H33.2496V53.0703Z" fill="white"/>
<g clip-path="url(#clip1_3_90)">
<rect width="96" height="96" fill="black"/>
<path d="M34.9513 21.5625L48.0068 62.208H48.1354L61.2551 21.5625H77.2046V23.106C71.1593 23.106 70.3232 24.2636 70.3232 28.1867V66.3883C70.3232 70.3114 71.1593 71.469 77.2046 71.469V73.0125H56.2388V71.469C62.2198 71.469 63.0559 70.3114 63.0559 66.3883V25.2926H62.8629L47.1707 74.2987H44.2766L28.6487 25.9357H28.4557V66.3883C28.4557 70.3114 29.3561 71.469 35.3372 71.469V73.0125H18.9375V71.469C24.9186 71.469 25.7546 70.3114 25.7546 66.3883V28.1867C25.7546 24.2636 24.9186 23.106 18.9375 23.106V21.5625H34.9513Z" fill="white"/>
</g>
</g>
<defs>
<clipPath id="clip0_3_90">
<rect width="96" height="96" rx="20" fill="white"/>
</clipPath>
<clipPath id="clip1_3_90">
<rect width="96" height="96" fill="white"/>
</clipPath>
</defs>
</svg>
